<?xml version="1.0" encoding="utf-8"?>
<!-- Generator: Adobe Illustrator 25.2.0, SVG Export Plug-In . SVG Version: 6.00 Build 0)  -->
<svg version="1.1" id="Layer_1" xmlns="http://www.w3.org/2000/svg" xmlns:xlink="http://www.w3.org/1999/xlink" x="0px" y="0px"
	 viewBox="0 0 673.9 320.7" style="enable-background:new 0 0 673.9 320.7;" xml:space="preserve">
<style type="text/css">
	.st0{fill:#FFFFFF;}
</style>
<g>
	<path class="st0" d="M130.1,247v-76.2h0V70.1c0-28.6-4.6-53.8-14.5-69.5l63.5,0c-9.9,15.6-14.5,40.9-14.5,69.5v177
		c0,23.2,4.6,57.8,14.5,73.5h-63.5C125.5,304.8,130.1,270.3,130.1,247z"/>
	<path class="st0" d="M538.8,31.3c0,0.1,0,0.1,0,0.1l0,0v-0.2C538.8,31.3,538.8,31.3,538.8,31.3z"/>
	<path class="st0" d="M264.1,55.7l0.5,205.5c-0.4,14-3.2,40.1-10.2,59.5h56.3c0,0-11.8-24.6-11.8-60.3L299,57.1
		c0.3-26.8,0.8-36.4,0.8-36.4c2.1-14.8,29.1-13.8,29.4,0.2c0,0.1,0,0.2,0,0.4l0.7,123.3c0,5-0.5,9.9-10.1,10
		c-14,0.1-13.8,14.9-13.8,14.9s-1.6,15.2,15.1,14.9c1.5,0,14.4-1.1,14.3,10.1c0,0,3.5,45.8-7.3,104.2c0,0-2.6,13.3-7.9,22.2
		c1,0,2.9,0,3.7-0.1c0.2,0,0.4,0,0.6,0c0,0,60.1,0.1,60.1,0c-6.4-9.3-8-21.3-8-21.3c-6.3-43-6.1-111.5-6.1-111.5
		c0-15.2-16.7-14.2-16.7-14.2l-32.8-0.2c-1,0-0.8-0.2-1.5-0.4c-3.6-1.4-4-6.2-0.6-8c0.8-0.4,2.9-0.7,4.3-0.7c0,0,22.9-0.8,24.8-0.8
		c19.1,0,17.7-8.9,17.5-24.4L365.1,26c0-27.8-26.7-25.4-26.7-25.4l-84.3,0C254.1,0.5,264.1,20,264.1,55.7z"/>
	<path class="st0" d="M186.9,0.6c0,0,62.7,0,62.7,0s-9.1,17.7-16.4,36.4L219,77.5c-6.9,23.1-14.2,42.9-19.4,61
		c-6.3,21.9-11.5,43.8-17.7,65.7c0,0-0.1,0.2-0.1,0.4c-0.3,1.2,0.3,2.8,1.5,2.9c1.1,0.1,2-1,2-1c0.8-1.2,1.1-2.2,1.7-3.9
		c8.4-23.1,12.4-32.4,19.1-52.6c1.4-4.2,3.3-8.2,6-11.8c4-5.2,10.5-7.2,16.2-5.5c5.1,1.6,7.5,5.7,8,10.5c0.6,6.2,0.7,12.5,0.4,18.7
		l-1,33.3c0,0-4.5,61,6.1,105.3c0,0,2.6,11.9,6.8,20h-3l-60,0c10.6-19.7,14.8-66.5,14.8-66.5l4.7-55.4l0.1-3.5c0,0,0-0.1,0-0.1
		c0-1.9-2.6-2.5-3.5-0.8c-0.5,0.9-0.8,1.6-0.8,1.6l-8.5,16.8c0,0-3.8,9.5-13.4,7c-10.3-2.7-9.6-9.2-8.3-14.4
		c1.9-7.6,3.4-15,4.9-22.7c3.7-18.3,7.9-36.7,11.2-55.1c8.1-45.4,8.8-74.5,8.6-82.9C195.1,17.9,186.9,0.5,186.9,0.6"/>
	<path class="st0" d="M538.8,37c0,0.1,0,0.1,0,0.1l0,0v-0.2C538.8,37,538.8,37,538.8,37z"/>
	<path class="st0" d="M534.8,29.2c0,0-0.4-12.1,5.5-12.1c5.3,0,5.4,3.9,5.5,12.3l6.5,265.2c0.3,6.7,1.3,12,3.2,15.7
		c1.9,3.8,4.8,6.4,8.9,8c4,1.5,9.3,2.3,15.7,2.3c6.3,0,13-0.4,16.9-2.4c11-5.6,10.2-25.1,10.2-25.1l0.8-261.8l0,0
		c0,0-0.6-14.2,7-14.2c5.6,0,6.7,6,6.7,13.9l-0.2,183.8c0,23.7-0.3,42.3-1,55.9c0,0-0.3,37.2-10.9,49.8h64.4
		c-11.3-17.6-13.7-49-13.7-49c-1.4-13.4-2.7-34.8-3.9-57L647,28.6c-0.5-7.5-3-16.8-6.9-21.2c-5.2-6.1-12-7.1-23.4-7
		c-6.7,0.1-12.2,2.9-15.2,6.2s-5.7,10.1-5.9,20.2l-3,271.1c0,4.8-1.3,7.5-2.6,9.1c-1.7,2-4.7,2.5-7,1.2c-2.9-1.7-3.4-5.8-3.6-10
		l-6.3-263.1c-0.3-9.7-1.7-16.9-4.2-21.8c-2.6-4.9-5.8-8.2-9.6-10c-3.8-1.8-9.9-2.7-14.2-2.7c-4.3,0-10,0.3-13.4,2.6
		c0,0-5,2.9-6.8,7.7c-1.3,3.4-2,7.4-2.1,12.1l-7.7,199.2c-0.7,20.7-0.7,38.3-2,50.8c0,0-1.5,27.9-8.9,47.7h42.2
		c-9.5-19.2-11.1-48.9-11.1-48.9c-0.9-12-1.3-31.2-1.3-49.6l0.8-190.8"/>
	<g>
		<path class="st0" d="M77.3,24.4C73.9-3.4,49,0.1,49,0.1C37.4,0.5,31,5.7,29.2,13.2c-1.9,8-1.9,16.3-2.7,24.6
			c-1.1,11.3-1.5,23.6-2.3,34.9c-0.8,11.6-1.6,31.3-2.3,42.9c-0.7,11.4-1.4,22.8-2.2,34.1c-0.9,14-1.9,28.1-2.8,42.1
			c-0.9,13.5-1.6,26.9-2.7,40.4c-1.1,13.6-2.4,27.2-3.8,40.8c0,0-3.1,28.2-10.4,47.7l2.9,0l37.6,0c-7.1-18.7-8-67-8-67
			s28.1,0,28.1,0.1c0,0-2.9,44.9-10.7,66.9h60.9C98.4,300,91.9,204.8,91.9,204.8L77.3,24.4z M58.8,193.8l1.7,42.7l-27.9,0l2.2-70.5
			c0.6-20.3,1.1-40.6,1.7-60.9c0.6-22.4,2.1-52.2,2.9-75.7c0.2-5.6,0.9-12.2,6-12.2c3.8,0,5.4,2,6.1,5.4v0c0.2,1.2,0.3,2.6,0.3,4.1
			L58.8,193.8z"/>
	</g>
	<g>
		<path class="st0" d="M466.9,24.4c-3.4-27.8-28.3-24.3-28.3-24.3c-11.5,0.4-18,5.6-19.8,13.1c-1.9,8-1.9,16.3-2.7,24.6
			c-1.1,11.3-1.5,23.6-2.3,34.9c-0.8,11.6-1.5,31.3-2.3,42.9c-0.7,11.4-1.4,22.8-2.2,34.1c-0.9,14-1.9,28.1-2.8,42.1
			c-0.9,13.5-1.6,26.9-2.7,40.4c-1.1,13.6-2.4,27.2-3.8,40.8c0,0-3.1,28.2-10.4,47.7l2.8,0l37.6,0c-7.1-18.7-8-67-8-67
			s28.1,0,28.1,0.1c0,0-2.9,44.9-10.7,66.9h60.9C488,300,481.5,204.8,481.5,204.8L466.9,24.4z M448.3,193.8l1.7,42.6l-27.9,0
			l2.2-70.4c0.5-20.3,1.1-40.6,1.7-60.9c0.6-22.4,2.1-52.2,2.9-75.7c0.2-5.6,0.8-12.2,6-12.2c3.8,0,5.4,2,6.1,5.4v0
			c0.2,1.2,0.3,2.6,0.3,4.1L448.3,193.8z"/>
	</g>
</g>
</svg>
