<?xml version="1.0" encoding="utf-8"?>
<!-- Generator: Adobe Illustrator 25.2.3, SVG Export Plug-In . SVG Version: 6.00 Build 0)  -->
<svg version="1.1" id="Layer_1" xmlns="http://www.w3.org/2000/svg" xmlns:xlink="http://www.w3.org/1999/xlink" x="0px" y="0px"
	 viewBox="0 0 32 32" style="enable-background:new 0 0 32 32;" xml:space="preserve">
<style type="text/css">
	.st0{fill:#FFFFFF;}
</style>
<rect x="0" y="0" width="32.2" height="32.2"/>
<g>
	<g>
		<path class="st0" d="M18.8-5.2c-0.5-4-4-3.5-4-3.5c-1.6,0-2.6,0.8-2.8,1.9c-0.3,1.1-0.3,2.3-0.4,3.5c-0.2,1.6-0.2,3.4-0.3,5
			c-0.1,1.7-0.2,4.4-0.3,6.1c-0.1,1.6-0.2,3.2-0.3,4.9c-0.1,2-0.3,4-0.4,6c-0.1,1.9-0.2,3.8-0.4,5.7c-0.2,1.9-0.3,3.9-0.5,5.8
			c0,0-0.4,4-1.5,6.8l0.4,0l5.3,0c-1-2.7-1.1-9.5-1.1-9.5s4,0,4,0c0,0-0.4,6.4-1.5,9.5h8.7c-1.7-2.9-2.7-16.5-2.7-16.5L18.8-5.2z
			 M16.2,18.9l0.2,6.1l-4,0l0.3-10c0.1-2.9,0.2-5.8,0.2-8.7c0.1-3.2,0.3-7.4,0.4-10.8c0-0.8,0.1-1.7,0.9-1.7c0.5,0,0.8,0.3,0.9,0.8
			v0c0,0.2,0,0.4,0,0.6L16.2,18.9z"/>
	</g>
</g>
</svg>
