<?xml version="1.0" encoding="utf-8"?>
<!-- Generator: Adobe Illustrator 25.2.0, SVG Export Plug-In . SVG Version: 6.00 Build 0)  -->
<svg version="1.1" xmlns="http://www.w3.org/2000/svg" xmlns:xlink="http://www.w3.org/1999/xlink" x="0px" y="0px"
	 viewBox="0 0 1000 600" style="enable-background:new 0 0 1000 600;" xml:space="preserve">
<style type="text/css">
	.st0{fill:#FFFFFF;}
	.st1{fill:none;stroke:#879FC6;stroke-width:0.75;stroke-miterlimit:10;}
	.st2{fill:none;stroke:#879FC6;stroke-width:0.75;stroke-linecap:square;stroke-miterlimit:10;}
	.st3{fill:none;stroke:#879FC6;stroke-width:0.5;stroke-miterlimit:10;}
</style>
<g id="Layer_1">
</g>
<g id="Layer_3">
	<g>
		<path class="st0" d="M293.1,382.7v-76.2h0V205.7c0-28.6-4.6-53.8-14.5-69.5l63.5,0c-9.9,15.6-14.5,40.9-14.5,69.5v177
			c0,23.3,4.6,57.8,14.5,73.5h-63.5C288.6,440.5,293.1,406,293.1,382.7z"/>
		<path class="st0" d="M427.1,191.4l0.5,205.5c-0.4,14-3.2,40.1-10.2,59.5h56.3c0,0-11.8-24.6-11.8-60.3l0.2-203.2
			c0.3-26.8,0.8-36.4,0.8-36.4c2.1-14.8,29.1-13.8,29.4,0.2c0,0.1,0,0.2,0,0.4l0.7,123.3c0,5-0.5,9.9-10.1,10
			c-14,0.1-13.8,14.9-13.8,14.9s-1.6,15.2,15.1,14.9c1.4,0,14.4-1.1,14.3,10.1c0,0,3.5,45.8-7.3,104.2c0,0-2.6,13.3-7.9,22.2
			c1,0,2.9,0,3.7-0.1c0.2,0,0.4,0,0.6,0c0,0,60.1,0.1,60.1,0c-6.4-9.3-8-21.3-8-21.3c-6.3-43-6.1-111.5-6.1-111.5
			c0-15.2-16.7-14.2-16.7-14.2l-32.8-0.2c-1,0-0.8-0.2-1.5-0.4c-3.6-1.4-4-6.2-0.6-8c0.8-0.4,2.9-0.7,4.3-0.7c0,0,22.9-0.8,24.8-0.8
			c19,0,17.7-8.9,17.5-24.4l-0.6-113.2c0-27.8-26.7-25.4-26.7-25.4l-84.3,0C417.1,136.2,427.1,155.7,427.1,191.4z"/>
		<path class="st0" d="M349.9,136.2c0,0,62.7,0,62.7,0s-9.2,17.7-16.4,36.4l-14.1,40.6c-6.9,23.1-14.2,42.9-19.4,61
			c-6.3,21.9-11.5,43.8-17.7,65.7c0,0-0.1,0.2-0.1,0.4c-0.3,1.2,0.3,2.8,1.5,2.9c1.1,0.1,2-1,2-1c0.8-1.2,1.1-2.2,1.7-3.9
			c8.4-23.1,12.4-32.4,19.1-52.6c1.4-4.2,3.3-8.2,6.1-11.8c4-5.2,10.4-7.2,16.2-5.5c5.1,1.6,7.5,5.7,8,10.5
			c0.6,6.2,0.7,12.5,0.4,18.7l-1.1,33.3c0,0-4.5,61,6.1,105.3c0,0,2.6,11.8,6.8,20h-3l-60,0c10.6-19.7,14.8-66.5,14.8-66.5l4.7-55.4
			l0.1-3.5c0,0,0-0.1,0-0.1c0-1.9-2.6-2.5-3.5-0.8c-0.5,0.9-0.8,1.6-0.8,1.6l-8.5,16.8c0,0-3.8,9.5-13.4,7
			c-10.3-2.7-9.6-9.2-8.3-14.4c1.9-7.6,3.4-15,4.9-22.7c3.7-18.3,7.9-36.7,11.2-55.1c8.1-45.4,8.8-74.5,8.7-82.9
			C358.2,153.6,349.9,136.2,349.9,136.2"/>
		<path class="st0" d="M698.2,167.6c0,0-0.7-14.8,5.2-14.8c5.3,0,5.4,3.9,5.4,12.3l6.5,265.2c0.3,6.7,1.3,12,3.2,15.7
			c1.9,3.8,4.9,6.4,8.9,8c4,1.5,9.3,2.3,15.7,2.3c6.3,0,13-0.4,16.9-2.4c11-5.6,10.2-25.1,10.2-25.1l0.8-261.8l0,0
			c0,0-0.6-14.2,7-14.2c5.6,0,6.7,6,6.7,13.9l-0.2,183.8c0,23.7-0.3,42.3-1,55.9c0,0-0.3,37.2-10.9,49.8h64.4
			c-11.3-17.6-13.7-49-13.7-49c-1.4-13.4-2.7-34.8-3.9-57l-9.3-186.1c-0.5-7.5-3-16.8-6.9-21.2c-5.2-6-12-7.1-23.4-7
			c-6.7,0.1-12.2,2.9-15.2,6.2c-3,3.4-5.7,10.1-5.9,20.2l-3,271.1c0,4.8-1.3,7.5-2.6,9.1c-1.7,2-4.7,2.5-7,1.2
			c-2.9-1.7-3.4-5.8-3.6-10l-6.3-263.1c-0.3-9.7-1.7-17-4.2-21.8c-2.6-4.9-5.8-8.2-9.6-10c-3.8-1.8-9.9-2.7-14.2-2.7
			c-4.3,0-10,0.3-13.4,2.6c0,0-5,2.8-6.8,7.7c-1.3,3.4-2,7.4-2.1,12.1l-7.7,199.2c-0.7,20.7-0.7,38.3-2,50.8c0,0-1.5,27.9-8.9,47.7
			h42.2c-9.5-19.2-11.1-48.9-11.1-48.9c-0.9-12-1.3-31.2-1.3-49.6l0.8-190.8"/>
		<g>
			<path class="st0" d="M240.4,160.1c-3.4-27.8-28.3-24.3-28.3-24.3c-11.5,0.4-18,5.6-19.8,13.1c-1.9,8-1.9,16.3-2.7,24.6
				c-1.1,11.3-1.5,23.6-2.3,34.9c-0.8,11.6-1.6,31.3-2.3,42.9c-0.7,11.4-1.4,22.8-2.2,34.2c-0.9,14-1.9,28.1-2.8,42.1
				c-0.9,13.5-1.6,26.9-2.7,40.4c-1.1,13.6-2.4,27.2-3.8,40.8c0,0-3.1,28.2-10.4,47.7l2.8,0l37.6,0c-7.1-18.7-8-67-8-67
				s28.1,0,28.1,0.1c0,0-2.9,44.9-10.7,66.9h60.9C261.5,435.7,255,340.5,255,340.5L240.4,160.1z M221.8,329.5l1.7,42.7l-27.9,0
				l2.2-70.5c0.6-20.3,1.1-40.6,1.7-60.9c0.6-22.4,2.1-52.2,2.9-75.7c0.3-5.6,0.8-12.2,6-12.2c3.8,0,5.4,2,6.1,5.4v0
				c0.2,1.2,0.3,2.6,0.3,4.1L221.8,329.5z"/>
		</g>
		<g>
			<path class="st0" d="M629.9,160.1c-3.4-27.8-28.3-24.3-28.3-24.3c-11.5,0.4-18,5.6-19.8,13.1c-1.9,8-1.9,16.3-2.7,24.6
				c-1.1,11.3-1.5,23.6-2.3,34.9c-0.8,11.6-1.6,31.3-2.3,42.9c-0.7,11.4-1.4,22.8-2.2,34.2c-0.9,14-1.9,28.1-2.8,42.1
				c-0.9,13.5-1.6,26.9-2.7,40.4c-1.1,13.6-2.4,27.2-3.8,40.8c0,0-3.1,28.2-10.4,47.7l2.8,0l37.6,0c-7.1-18.7-8-67-8-67
				s28.1,0,28.1,0.1c0,0-2.9,44.9-10.7,66.9h60.9c-12.3-20.6-18.8-115.8-18.8-115.8L629.9,160.1z M611.4,329.5l1.7,42.6l-27.9,0
				l2.2-70.4c0.6-20.3,1.1-40.6,1.7-60.9c0.6-22.4,2.1-52.2,2.9-75.7c0.3-5.6,0.8-12.2,6-12.2c3.8,0,5.4,2,6.1,5.4v0
				c0.2,1.2,0.3,2.6,0.3,4.1L611.4,329.5z"/>
		</g>
	</g>
	<g>
		<path class="st1" d="M291.3,357.1c0.5-0.2,1.3-0.6,1.9-0.6"/>
		<path class="st1" d="M291.6,357l-3.8,1.4c-1.3,0.5-2.5,1.1-3.7,1.8l0,0"/>
		<path class="st1" d="M280.1,363l-1.9-1.2l-3.2-4.6c-1.2-1.5-4.4-4.5-8-2.3c-2.2-0.3-3.3,0.8-4.2,1.7c-0.8,0.9-2.6,1.6-2.6,1.6
			s1.3-0.2,3,0.8c1.7,1,2.9,2.5,5,1.7c1.4,1.5,2.7,1.7,4.8,1.3c2.1-0.3,2-2.2,4.9,0.3"/>
		<path class="st1" d="M282,362.1c-0.9-1-2.4-1-3.2-2.1c-1.6-2.2-2.7-4.7-3.1-7.3c-0.2-1.3-0.2-2.6,0-4c0.2-1.3,0.5-2.6,1-3.9
			l0.2-0.5l0.1-0.2l0.1-0.2c0.1-0.3,0.3-0.6,0.4-0.9l0.4-0.9c0.1-0.2,0.1-0.3,0.2-0.5l0.2-0.4c0.6-1.2,1.4-2.4,2.1-3.5
			c-0.9,1-1.7,2.1-2.5,3.3c-0.4,0.6-0.7,1.2-1.1,1.8c-0.3,0.6-0.6,1.2-0.9,1.9c-0.5,1.3-0.9,2.6-1.1,4c-0.2,1.4-0.2,2.8,0,4.2
			c0.2,1.4,0.6,2.7,1.2,4c0.6,1.3,1.3,2.5,2.1,3.6c0.7,1,1.6,2,2.4,3"/>
		<path class="st1" d="M279,348.9c1.1-1.1,2.1-1.6,3.6-2.4c0,0,4.1-1.5,4.3-1.9c0.2-0.5-2.3,4.5-3.2,5.2c-0.6,0.4-1.1,0.9-1.7,1.3
			c-0.3,0.2-0.6,0.4-0.9,0.5c-0.1,0.1-0.3,0.2-0.4,0.3c-0.1,0.1-0.3,0.2-0.4,0.3c-0.5,0.4-1,0.8-1.4,1.3c-0.5,0.6-1.2,1.1-1.6,1.8"
			/>
		<path class="st1" d="M283.1,349.2c-0.5,0.4-1,0.8-1.6,1.2c-0.3,0.2-0.6,0.3-0.9,0.5c-0.1,0.1-0.3,0.2-0.5,0.3
			c-0.1,0.1-0.3,0.2-0.4,0.3c-0.6,0.4-1.1,0.9-1.6,1.5c-0.2,0.2-0.7,0.8-0.8,1.1"/>
		<path class="st1" d="M277.8,358.3c-0.9-2.4-0.8-5,1.1-9.1c2-4.1,2.3-4.6,1.9-6.9l-0.5-4.8l-5.2,3.9c-2.4,1.8-3.2,5.8-2,8.6
			c-0.3,1.1,1.8,4.1,3,6.6"/>
		<line class="st1" x1="281.4" y1="363.7" x2="280.4" y2="363.3"/>
		<path class="st1" d="M276.9,360.8c-1.4-0.9-2.8-1.8-4.4-2.4c-1.7-0.7-3.4-1.1-5.2-1.1c-1.8-0.1-3.5,0.1-5.3,0.5l1.3-0.2
			c0.4,0,0.9-0.1,1.3-0.1c0.2,0,0.4,0,0.7,0l0.7,0c0.2,0,0.4,0,0.7,0l0.7,0c1.7,0.1,3.4,0.6,5,1.3c1.6,0.7,3.1,1.6,4.5,2.6
			c1.4,1,2.6,2.4,4.2,2.9"/>
		<path class="st1" d="M280,363l-0.6-0.5l-1.1-0.8c-0.4-0.3-0.7-0.5-1.1-0.8c-0.1-0.1-0.2-0.1-0.3-0.2"/>
		<line class="st1" x1="280.4" y1="363.3" x2="280" y2="363"/>
		<line class="st2" x1="259.6" y1="388.3" x2="284" y2="360.1"/>
		<path class="st1" d="M292.6,360.1c-1.2-1.2-7.2,2.4-7.2,2.4l-25,29.3"/>
		<path class="st1" d="M275,375.3c2,1.5-0.1,2.7,0.1,5.2c0.2,2.5,0.5,3.6,2.3,4c-0.4,2.3,2.2,3.2,2.5,5.2c2.8-2,3.7-7.1,2.3-8.8
			c0.2-1.4-3.2-2.5-4.4-3.7"/>
		<path class="st2" d="M278.4,375.4c-1.7-0.4-1.1,1.1-1.1,1.1c0.7,0.8,1.2,1.7,1.7,2.6c0.3,0.6,0.6,1.3,0.8,1.9
			c0.2,0.7,0.3,1.4,0.4,2.1c0.1,0.7,0.1,1.4,0.1,2.1c0,0.7-0.1,1.4-0.2,2c0-0.7,0-1.4,0-2c-0.1-0.7-0.2-1.3-0.3-2
			c0-0.2-0.1-0.3-0.1-0.5l-0.1-0.5c-0.1-0.3-0.2-0.6-0.3-0.9c-0.2-0.6-0.5-1.2-0.8-1.8c-0.6-1.2-1.4-2.3-2.3-3.2
			c-0.5-0.5-0.9-0.9-1.5-1.3"/>
		<path class="st2" d="M293.1,377c-4.8,0.4-9.7-0.3-14.7-1.5"/>
		<g>
			<path class="st3" d="M518.8,350.9c2.4-4.5,4-8,4-8c0.9,2.3,0.1,3.7-0.6,6.3c-0.7,2.6-0.8,6,0.2,8.2c1,2.2,2.4,4.5,2.2,7.8
				c-0.7-1.7-2.6-3.2-4.5-4.8C518.1,358.8,516.4,355.4,518.8,350.9z"/>
			<path class="st3" d="M524.6,365.3c0.2-3.3-1.2-5.6-2.2-7.8c-1-2.2-1-5.6-0.2-8.2c0.7-2.6,1.5-4.1,0.6-6.3c1.8,2.7,2.2,5,2.3,7.7
				c0.2,2.7,0.6,3.6,1.7,5.6C527.9,358.2,528,361.6,524.6,365.3z"/>
			<path class="st3" d="M521,339.9c-0.6,3.4-2,6.3-4.4,8c-2.7,2-5.5,3.4-6.7,6.2c-1.1-3.3-0.2-7.8,2.3-9.2c2.3-1.3,6.2-2.5,7.3-6.7"
				/>
			<path class="st3" d="M518.5,351.5c-0.5,0.2-1,0.4-1.5,0.5c-3.9,0.8-5.3,1.2-7.1,2.2c1.2-2.8,3.9-4.1,6.7-6.2
				c2.4-1.8,3.8-4.6,4.4-8"/>
			<path class="st3" d="M511.3,317.6c-0.7,3.9-2.4,6.6-5.6,8.1c-1.2,5.2-9.2,11.3-17.1,8.7c3.5-3.4,1.3-9.8,6.5-12.3
				c-1.6-4.1,0.1-6.2,4.7-10.2c4.6-4,9.9-1.4,10.1-7.5"/>
			<path class="st3" d="M512.4,305.5c1.1,1.9,3.4,2.5,5.9,2.8c3.4,0.5,6,1,7.2,5.2c2.4-0.4,3.4,1.9,4.4,3.8c1,1.9,3.5,2.3,6.2,2.1
				c2.7-0.2,5,2.1,5,2.1s-2.2,0.2-6.1,2.8c-3.9,2.5-6.4,3.8-9.7,1.8c-2.9,0-6.6-0.2-11-5.9"/>
			<path class="st3" d="M502.7,271.7c2.8-3.7,6.3-3.4,10.1-4.1c3.9-0.7,5.8-3.2,6.8-6.9c1.1,10.5-8,13.9-15.3,13.8"/>
			<path class="st3" d="M500,269.6c2.9-7.4,7.9-6.6,11.5-6.8c3.5-0.2,5.6-0.1,8.1-2.1c-1.1,3.7-2.9,6.2-6.8,6.9
				c-3.8,0.7-7.2,0.3-10.1,4.1"/>
			<path class="st3" d="M412.3,228.6c1.2,2.1,1.3,4.7,1.4,7.4c0,2.9,0.7,5.3,2.9,7.7c2.1,2.4,3.3,3.7,3.7,6.6
				c-1.7-2.2-6.3-3.3-8.3-5.6c-2-2.4-1.6-6.4-0.6-10.1c0.8-2.9,0.9-5.2,0.9-6"/>
			<path class="st3" d="M412.1,228.3c0.3,0.3,0.6,0.5,0.9,0.8"/>
			<path class="st3" d="M413,229c2.5,2.3,3.3,4.3,3.7,6.2c0.5,2.1,1.4,3.1,3.3,5c1.9,1.8,2.9,6.2,0.1,10.1c-0.3-2.9-1.6-4.2-3.7-6.6
				c-2.1-2.4-2.8-4.8-2.9-7.7c0-2.5-0.2-4.8-1-6.8"/>
			<path class="st3" d="M406.3,238.2c-2.2,1.9-3.8,3.6-4.6,5.8c-1.8-3.7-1.1-8.1,1.9-10.5c2.6-2.1,4.1-3.8,4.7-6.5"/>
			<path class="st3" d="M410.6,239.1c-2.7,2.8-6.9,3.4-8.9,4.9c0.8-2.2,2.4-3.9,4.6-5.8c2.2-1.9,4.9-6.1,3.6-10.9"/>
			<path class="st3" d="M510.8,310.7c-0.6,2.5-1.5,4.8-2.7,7.1c-0.8,1.5-1.6,3-2.6,4.3c-1,1.4-2.2,2.6-3.4,3.7
				c-1.2,1.1-2.5,2.2-3.9,3.1c-1.4,0.9-2.8,1.7-4.3,2.5c1.4-0.9,2.7-1.9,3.9-3c1.2-1.1,2.3-2.3,3.4-3.5c0.3-0.3,0.5-0.6,0.8-0.9
				l0.7-1c0.5-0.7,0.9-1.3,1.3-2c0.9-1.3,1.7-2.7,2.4-4.1c1.4-2.9,2.5-5.9,3.1-9.1c0.3-1.6,0.5-3.2,0.6-4.8c0-1.6,0-3.2-0.4-4.6"/>
			<path class="st3" d="M512.5,308c1.2,2.3,2.5,4.6,4.1,6.6l0.3,0.4l0.3,0.3l0.6,0.7c0.2,0.2,0.5,0.4,0.7,0.6
				c0.2,0.2,0.5,0.4,0.7,0.6c1,0.7,2,1.4,3.2,2l0.9,0.4c0.3,0.1,0.6,0.2,0.9,0.3c0.3,0.1,0.6,0.2,0.9,0.3c0.3,0.1,0.6,0.2,0.9,0.3
				c0.6,0.2,1.2,0.3,1.9,0.4l1,0.2c0.3,0.1,0.6,0.1,1,0.1c2.6,0.3,5.2,0.2,7.9,0.1l-2,0.4l-1,0.2c-0.3,0.1-0.7,0.1-1,0.1
				c-0.7,0.1-1.3,0.2-2,0.2l-2,0.1c-0.3,0-0.7,0-1,0l-1,0c-0.7,0-1.4-0.1-2.1-0.2l-0.5-0.1c-0.2,0-0.3-0.1-0.5-0.1
				c-0.3-0.1-0.7-0.2-1-0.3c-0.3-0.1-0.7-0.2-1-0.3l-1-0.4c-0.7-0.2-1.3-0.6-1.9-1c-0.2-0.1-0.3-0.2-0.5-0.3l-0.4-0.3l-0.9-0.6
				c-0.3-0.2-0.5-0.5-0.8-0.7c-0.3-0.2-0.5-0.5-0.8-0.7l-0.7-0.8l-0.4-0.4l-0.3-0.4c-0.7-0.9-1.4-1.8-2-2.8"/>
			<path class="st3" d="M512.6,308.3c0-0.4-0.1-0.9-0.1-1.3c-1.4-15.3-2.5-28.4-19.5-45.8c-16.9-17.4-42.5-24.2-61.2-29.2
				c-2.7-0.7-5.2-1.4-7.6-2.1c-2.6-0.7-5.1-1.5-7.5-2.3l0-1.1"/>
			<path class="st3" d="M384.8,206.6c9.9,9.4,20.1,17,30.4,20.6l0.5-0.6"/>
			<path class="st3" d="M444.9,237.7c-4.8-1.4-9.4-2.7-13.6-3.8c-2.7-0.7-5.2-1.4-7.6-2.1c-14.2-4-27-11.9-39.7-23.1"/>
			<path class="st3" d="M480.9,253.6c-10.8-7.3-23.3-12.1-34.8-15.6"/>
			<path class="st3" d="M509.9,300.2c-1.4-12.1-4.4-23.5-18.2-37.7c-1.9-1.9-3.9-3.7-6-5.4"/>
			<path class="st3" d="M510.9,310.6c0.1,1.1,0.2,2.3,0.4,3.5c2,18,12,31.2,20.4,35.8l3.2,2"/>
			<path class="st3" d="M513.1,313.2c0,0.2,0,0.4,0.1,0.7c2,18.5,12.4,30.9,19.1,34.5l3.2,1.9"/>
			<path class="st3" d="M466.7,246.4c-0.5,4.6-3.7,6.1-6.6,8.6c-3,2.6-3.3,5.7-2.4,9.4c-6.3-8.4-0.2-16,6.1-19.7"/>
			<path class="st3" d="M470,246.9c1.3,7.8-3.4,9.7-6.4,11.7c-2.9,1.9-4.8,2.9-5.9,5.9c-1-3.8-0.6-6.8,2.4-9.4
				c2.9-2.5,6.1-4,6.6-8.6"/>
			<path class="st3" d="M602.3,315.8c0-2.1,0-4.2-0.1-6.3c-0.1-2.1-0.3-4.2-0.7-6.2c-0.7-4.1-2.2-8.1-4.6-11.3
				c-1.2-1.7-2.7-3.1-4.3-4.4c-1.6-1.3-3.4-2.3-5.3-3.2l-0.7-0.3l-0.4-0.2l-0.4-0.1c-0.5-0.2-1-0.4-1.4-0.6l-1.5-0.5
				c-0.2-0.1-0.5-0.2-0.7-0.3l-0.8-0.2c-2-0.6-4.1-1.1-6.1-1.5c2.1,0.2,4.2,0.4,6.3,0.8c1.1,0.2,2.1,0.5,3.1,0.8c1,0.3,2,0.7,3,1.1
				c2,0.8,3.9,1.9,5.6,3.2c1.7,1.3,3.3,2.9,4.6,4.6c1.3,1.7,2.4,3.7,3.1,5.7c0.8,2,1.4,4.1,1.7,6.2c0.3,1.7,0.5,3.4,0.6,5.1
				c0,0.3,0,0.5,0,0.8"/>
			<path class="st3" d="M541.8,355.7c6.6,5.1,9.3,12.2,1.6,14.1c7.3,0.4,9.8-5.9,3.7-11.9"/>
			<path class="st3" d="M548.8,358.4c7.3,4.6,13.6,10.4,6.4,17.4c6.7-2.3,8.7-10.7-2.4-16.5"/>
			<path class="st3" d="M548.3,356.9c5.7-0.8,8.8-3.1,9.7-8.1c3.1,1.6,3.5,7.2-5.6,9.3"/>
			<path class="st3" d="M576.4,353.4c-0.5-2.1-2.5-7-0.6-7.8c-0.8-1.8,0-3.7,1.7-5.3c1.7-1.6,3.2-2.9,3.7-5.3
				c3.3,2.4,6.5,6.2,3.2,14"/>
			<path class="st3" d="M583.7,351.5c3.7-0.6,4.2,1.4,6,3c2.2,1.9,3.1,2.8,4.8,2.5c1.9,1.1,3.3,0.9,4.5,0.4c1.2-0.5,4,1,5.1,3.8
				c0.7-2.9,0.6-6.4-1.6-8.1c-1.8-4.5-6-6.6-15.3-3.4"/>
			<path class="st3" d="M564.3,361.8c1.3,1.5,1.8,3.6,1.2,5.8c-0.7,2.6-2.5,5.1,1.1,7.9c-1.6,1.3-1.8,2.6-0.7,5.4
				c1.1,2.8,1.5,5.9,1,8.3c5.2-2.5,11.2-9,7.2-20"/>
			<path class="st3" d="M569.5,366.5c0.3,0.7,0.5,1.4,0.7,2.1c0.7,2.2,1.1,4.6,1.1,6.9c0,1.2,0,2.3-0.2,3.5c0,0.3-0.1,0.6-0.1,0.9
				l-0.1,0.9c-0.1,0.6-0.3,1.1-0.4,1.7c-0.3,1.1-0.8,2.2-1.3,3.2c-0.5,1-1.1,2-1.8,2.9c0.4-1.1,0.8-2.1,1.2-3.2
				c0.3-1.1,0.6-2.2,0.9-3.3c0.2-1.1,0.4-2.2,0.5-3.3c0.1-1.1,0.2-2.2,0.1-3.3c-0.1-2.2-0.4-4.4-1-6.6c-0.3-1.1-0.7-2.1-1.2-3.1
				c-0.3-0.7-0.6-1.3-1-1.9"/>
			<path class="st3" d="M562.6,360.1c3,1,3.2,2.5,4.6,4.3c1.5,1.9,3.1,3.1,4.6,2.6c2,2.8,4.2,3.2,6.8,3.7c2.6,0.5,5.8,2.5,7,6.2
				c1.3-4.4,3.4-15.5-14.5-19.1"/>
			<path class="st3" d="M566.3,359.1c1,0.2,2.1,0.4,3.1,0.7c2.6,0.7,5.1,1.7,7.4,3c1.2,0.7,2.3,1.4,3.3,2.3c1,0.9,2,1.9,2.8,3
				c1.6,2.2,2.4,4.9,2.4,7.6c-0.3-1.3-0.7-2.5-1.3-3.7c-0.6-1.2-1.2-2.2-2-3.2c-0.8-1-1.7-1.9-2.7-2.7c-1-0.8-2-1.5-3.2-2.1
				c-2.2-1.3-4.6-2.2-7.1-2.9c-1.2-0.3-2.5-0.6-3.8-0.8c-1.3-0.2-2.6-0.4-3.8-0.4"/>
			<path class="st3" d="M574.9,354.9c1.3-1.2,2.4-2.5,3.3-4c0.9-1.5,1.7-3.1,2.2-4.7c0.1-0.4,0.2-0.8,0.3-1.2
				c0.1-0.4,0.2-0.8,0.3-1.3c0.1-0.9,0.2-1.7,0.3-2.6c0.1-1.7,0-3.5-0.1-5.3c0.8,1.6,1.2,3.5,1.3,5.3c0,0.9,0,1.9-0.2,2.8
				c-0.1,0.5-0.1,0.9-0.3,1.4c-0.1,0.4-0.2,0.9-0.4,1.3c-0.6,1.8-1.4,3.4-2.4,5c-0.4,0.6-0.8,1.1-1.2,1.7"/>
			<path class="st3" d="M585.6,349.8c1.1-0.2,2.2-0.2,3.3-0.2c2.2,0,4.4,0.3,6.6,1c1.1,0.3,2.1,0.8,3.1,1.3c1,0.6,1.9,1.2,2.7,2.1
				c1.6,1.6,2.6,3.8,2.8,6c-0.4-1-0.9-2-1.5-2.8c-0.6-0.9-1.3-1.6-2.1-2.3c-0.8-0.7-1.6-1.3-2.5-1.8s-1.9-0.9-2.9-1.2
				c-2-0.6-4.1-1-6.2-1c-1.1,0-2.1,0.1-3.1,0.2c-1,0.1-2.1,0.4-3,0.7"/>
			<path class="st3" d="M589.1,291.4c-2.4-0.1-4,0.6-6.5,1.4c-3.2,1-5.1,1.4-7.5,0.5c0.2,3.5,3.4,7.8,8.6,6c4.8,2.2,7.6,1.1,9.9,0.2
				c1.7-0.6,4.5-1.3,6.5-0.7"/>
			<path class="st3" d="M598,296.4c-1.1-0.4-2.6-0.2-3.7-0.3c-1-0.1-2,0-3,0.2c-0.3,0-0.5,0.1-0.8,0.1c-0.3,0.1-0.5,0.1-0.8,0.2
				c-0.5,0.1-1,0.3-1.6,0.4c-1.1,0.3-2.2,0.4-3.3,0.5c-1.1,0-2.2-0.1-3.3-0.4c-1.1-0.3-2.1-0.7-3.1-1.2c-0.5-0.2-0.9-0.5-1.4-0.8
				c-0.2-0.1-0.4-0.3-0.7-0.4c-0.2-0.2-0.4-0.3-0.7-0.5c2,0.7,4,1.4,6,1.8c1,0.2,2,0.3,3,0.2c1,0,2-0.2,3-0.5c0.5-0.1,1-0.3,1.5-0.4
				c0.3-0.1,0.5-0.1,0.8-0.2c0.3-0.1,0.5-0.1,0.8-0.2c1.1-0.2,2.2-0.2,3.3-0.2c0.5,0,1.6,0.2,2.1,0.2"/>
			<path class="st3" d="M600.8,300.3c-1.7-3.6-4.6-6.3-11.2-8.6c-6.6-2.3-7.5-2.5-9.7-5.3c-2.1-2.9-3.3-4.9-6.3-5.4
				c2.9-2.2,7-3.5,11.6-1.8c4.6-0.6,9.9,2.9,11.7,7.2c1.6,0.9,2.6,6.5,4.1,10.5"/>
			<path class="st3" d="M602.3,315.8c0-0.1,0-0.2,0-0.2"/>
			<path class="st3" d="M578.6,353c0.7-0.4,1.4-0.8,2-1.2c2.3-1.5,4.4-3.1,6.4-4.9l0.7-0.7c0.2-0.2,0.5-0.5,0.7-0.7l1.4-1.5l1.3-1.5
				c0.4-0.5,0.8-1.1,1.2-1.6c1.6-2.1,3-4.4,4.2-6.8l0.4-0.9l0.4-0.9l0.4-0.9l0.4-1l0.4-0.9l0.3-1c0.2-0.6,0.4-1.3,0.7-1.9
				c1.2-3.5,2-7.1,2.7-10.7"/>
			<path class="st3" d="M552.7,358c1.7,0.3,3.4,0.5,5.1,0.5c2.7,0.1,5.4-0.2,8-0.7c2.6-0.5,5.2-1.3,7.7-2.4c0.6-0.3,1.3-0.6,1.9-0.9
				"/>
			<path class="st3" d="M548.4,357C548.4,357,548.5,357,548.4,357"/>
			<path class="st3" d="M535.5,350.3c2.2,1.6,4.5,3,6.9,4.2c0.6,0.3,1.2,0.6,1.8,0.9l1.9,0.8c0.6,0.2,1.3,0.4,1.9,0.7
				c0.2,0.1,0.3,0.1,0.5,0.2"/>
			<path class="st3" d="M543,356.2c-0.4-0.2-0.8-0.4-1.1-0.6c-2.5-1.2-5.3-2.4-7.4-4.1"/>
			<path class="st3" d="M549.1,358.5l-0.6-0.2c-0.3-0.1-0.7-0.2-1-0.3c-0.1-0.1-0.3-0.1-0.4-0.2"/>
			<path class="st3" d="M561.9,359.7c-1.4,0.1-2.7,0.2-4.1,0.1c-1.7-0.1-3.4-0.2-5-0.5"/>
			<path class="st3" d="M583,351.7c-0.6,0.4-1.1,0.8-1.7,1.2c-2.3,1.5-4.8,2.8-7.3,3.8c-2.5,1.1-5.1,1.9-7.8,2.4"/>
			<path class="st3" d="M603.4,308.7c0,0-0.4-17.6,7.7-19.5c2.6-0.6-2.8,3.2-3.8,5.7c-1,2.5-1.6,5.2-2,7.8c-0.4,2.7-0.7,5.4-1,8.1
				c-0.4,2.7-0.8,5.4-1.4,8.1c-0.3,1.3-0.6,2.7-1,4c-0.4,1.3-0.8,2.6-1.2,3.9c-0.2,0.7-0.4,1.3-0.7,2l-0.3,1l-0.4,1l-0.4,1l-0.4,1
				l-0.4,1l-0.5,0.9c-1.2,2.5-2.7,4.8-4.3,7.1c-0.4,0.5-0.8,1.1-1.3,1.6l-1.4,1.6l-1.4,1.5c-0.2,0.3-0.5,0.5-0.7,0.7l-0.8,0.7
				c-0.8,0.7-1.6,1.4-2.4,2.1"/>
			<path class="st3" d="M478.2,209.7l2.3,1.4l4.2,5.5c1.5,1.8,5.7,5.4,10,2.5c2.7,0.3,4.1-1.2,5.1-2.3c1-1.1,3.1-2.1,3.1-2.1
				s-1.6,0.3-3.7-0.9c-2.1-1.1-3.6-2.9-6.3-1.9c-1.7-1.8-3.4-1.9-5.9-1.4c-2.5,0.5-2.4,2.9-6.1-0.2"/>
			<path class="st3" d="M473,206.1c1.2,1.1,2.5,2.3,3.6,3.5c1.2,1.2,2.3,2.4,3.3,3.8c2,2.6,3.5,5.6,4.1,8.9c0.3,1.6,0.4,3.3,0.2,4.9
				c-0.2,1.6-0.5,3.3-1,4.8l-0.2,0.6l-0.1,0.3l-0.1,0.3c-0.1,0.4-0.3,0.8-0.4,1.2l-0.5,1.2c-0.1,0.2-0.2,0.4-0.3,0.6l-0.3,0.6
				c-0.7,1.5-1.6,3-2.4,4.4c1.1-1.3,2.1-2.7,2.9-4.2c0.5-0.7,0.8-1.5,1.2-2.2c0.4-0.8,0.7-1.6,1-2.4c0.6-1.6,1-3.3,1.2-5
				c0.2-1.7,0.1-3.5-0.2-5.2c-0.3-1.7-0.9-3.4-1.6-4.9c-0.8-1.6-1.7-3-2.7-4.4c-1-1.3-2-2.4-3.1-3.6"/>
			<path class="st3" d="M416.9,220c0.6-6.6-2.1-12.1-7.4-8.5c3.7-4.5,8.8-2.6,9,4.3"/>
			<path class="st3" d="M419.1,214.4c1.2-6.8,1.3-13.6-6.7-13.2c4.9-2.7,11,0.6,8.4,10.4"/>
			<path class="st3" d="M419.8,215.5c3.5-2.9,6.6-3.5,10-1.3c0.7-2.7-2.4-5.9-8.5-1.7"/>
			<path class="st3" d="M436.9,200.9c0.9,1.4,2.7,5.2,4.2,4.6c0.7,1.4,2.1,2,4,1.9c1.9-0.1,3.4-0.3,5.1,0.7c0.4-3.2-0.1-7.2-6.5-9.5
				"/>
			<path class="st3" d="M442.1,197.7c2.4-1.8,1.4-3.2,1.5-5.1c0.1-2.3,0.1-3.3,1.1-4.2c0.4-1.7,1.2-2.4,2.1-2.9
				c0.9-0.4,1.6-2.9,0.6-5c2.1,1.2,4.1,3.1,3.9,5.3c1.7,3.5,0.6,7.1-6.3,10.9"/>
			<path class="st3" d="M425.5,203.5c-0.2-1.6-1.1-3-2.7-3.8c-1.9-1-4.4-1.3-4-4.9c-1.6,0.2-2.5-0.4-3.6-2.6
				c-1.1-2.2-2.6-4.1-4.3-5.1c4.3-1.7,11.3-1.7,15.7,6.6"/>
			<path class="st3" d="M425.5,197.9c-0.3-0.5-0.5-1.1-0.8-1.6c-1-1.6-2.1-3.1-3.4-4.4c-0.7-0.7-1.4-1.3-2.1-1.8
				c-0.2-0.1-0.4-0.3-0.6-0.4l-0.6-0.4c-0.4-0.2-0.8-0.5-1.2-0.7c-0.8-0.4-1.7-0.7-2.6-1c-0.9-0.2-1.8-0.4-2.7-0.5
				c0.9,0.3,1.7,0.7,2.5,1.1c0.8,0.4,1.6,0.8,2.4,1.3c0.8,0.5,1.5,0.9,2.2,1.5c0.7,0.5,1.4,1.1,2,1.7c1.3,1.2,2.4,2.6,3.3,4.2
				c0.5,0.8,0.9,1.6,1.2,2.4c0.2,0.5,0.4,1.1,0.6,1.6"/>
			<path class="st3" d="M425.6,205.4c1.1-2.3,0.3-3.2,0-5c-0.3-1.9-0.1-3.5,1-4.1c-0.5-2.7,0.4-4.2,1.5-6c1.1-1.8,1.7-4.8,0.1-7.5
				c3.3,1.6,10.9,6.4,3.4,18.9"/>
			<path class="st3" d="M428.2,203.8c0.4-0.7,0.9-1.5,1.3-2.2c1-1.9,1.8-3.9,2.3-6c0.2-1,0.4-2.1,0.4-3.2c0-1.1,0-2.2-0.2-3.2
				c-0.5-2.1-1.6-4.1-3.2-5.5c0.6,0.9,1.1,1.8,1.5,2.7c0.4,0.9,0.6,1.9,0.8,2.9c0.2,1,0.2,2,0.1,3c-0.1,1-0.2,2-0.4,3
				c-0.5,2-1.2,3.9-2.2,5.7c-0.5,0.9-1,1.8-1.6,2.7c-0.6,0.9-1.2,1.7-1.8,2.5"/>
			<path class="st3" d="M435.3,201c1.4-0.1,2.8-0.1,4.1,0.2c1.4,0.2,2.7,0.7,4,1.3c0.3,0.2,0.6,0.3,0.9,0.5c0.3,0.2,0.6,0.4,0.9,0.5
				c0.6,0.4,1.1,0.8,1.7,1.2c1.1,0.9,2.1,1.9,3,3c-0.5-1.3-1.4-2.6-2.4-3.6c-0.5-0.5-1.1-1-1.7-1.4c-0.3-0.2-0.6-0.4-0.9-0.6
				c-0.3-0.2-0.6-0.4-1-0.5c-1.3-0.6-2.8-1.1-4.2-1.3c-0.5-0.1-1.1-0.2-1.6-0.2"/>
			<path class="st3" d="M444.1,197.5c0.7-0.6,1.3-1.2,1.9-1.8c1.2-1.3,2.2-2.8,3-4.4c0.4-0.8,0.7-1.7,0.9-2.5
				c0.2-0.9,0.3-1.8,0.3-2.7c-0.1-1.8-0.8-3.6-2-4.9c0.4,0.8,0.7,1.6,0.9,2.4c0.2,0.8,0.3,1.6,0.2,2.5c0,0.8-0.1,1.6-0.3,2.4
				c-0.2,0.8-0.5,1.6-0.8,2.3c-0.7,1.5-1.7,2.9-2.8,4.2c-0.6,0.6-1.2,1.2-1.8,1.7c-0.6,0.5-1.3,1-2.1,1.3"/>
			<path class="st3" d="M480.2,227c-1.3,1.4-2.5,2.1-4.3,3.1c-2.3,1.3-3.6,2.3-4.3,4.2c-1.9-2-2.7-6.2,1.1-8.3c1.3-4,3.4-5.1,5.2-6
				c1.3-0.6,3.2-2,3.9-3.4"/>
			<path class="st3" d="M482.1,219c-0.4,0.9-1.3,1.6-1.9,2.3c-0.5,0.6-1.1,1.2-1.7,1.7c-0.2,0.1-0.3,0.2-0.5,0.4
				c-0.2,0.1-0.3,0.2-0.5,0.3c-0.4,0.2-0.7,0.5-1.1,0.7c-0.7,0.5-1.4,1-2.1,1.7c-0.6,0.6-1.2,1.4-1.6,2.1c-0.4,0.8-0.7,1.6-1,2.4
				c-0.1,0.4-0.2,0.8-0.3,1.3c0,0.2-0.1,0.4-0.1,0.6c0,0.2-0.1,0.4-0.1,0.6c0.7-1.6,1.3-3.1,2.2-4.5c0.4-0.7,0.9-1.3,1.5-1.9
				c0.6-0.6,1.2-1.1,1.9-1.5c0.3-0.2,0.7-0.5,1.1-0.7c0.2-0.1,0.4-0.2,0.5-0.4c0.2-0.1,0.4-0.3,0.5-0.4c0.7-0.5,1.3-1.2,1.9-1.9
				c0.2-0.3,0.8-1,1-1.4"/>
			<path class="st3" d="M481.3,215.3c1.2,2.9,1.2,6.1-1,11.3c-2.2,5.2-2.6,5.8-2.1,8.6c0.5,2.8,1.1,4.6-0.2,6.6
				c2.9-0.5,5.8-2.2,7.4-5.8c2.8-2.4,3.7-7.4,2.1-10.7c0.3-1.4-2.4-5-4-8.1"/>
			<line class="st3" x1="477.5" y1="209" x2="477.9" y2="209.3"/>
			<path class="st3" d="M473.1,206.1c0.1,0,0.1,0.1,0.2,0.1"/>
			<path class="st3" d="M438.4,199.9c0.6-0.2,1.2-0.4,1.8-0.5c2.1-0.5,4.2-0.9,6.3-1.1l0.8-0.1c0.3,0,0.5,0,0.8,0l1.6,0l1.6,0
				c0.5,0,1.1,0.1,1.6,0.1c2.1,0.2,4.2,0.6,6.3,1.2l0.8,0.2l0.8,0.3l0.8,0.3l0.8,0.3l0.8,0.3l0.7,0.3c0.5,0.2,1,0.4,1.5,0.6
				c2.7,1.2,5.3,2.6,7.8,4.2"/>
			<path class="st3" d="M421.5,212.3c0.7-1.2,1.5-2.2,2.4-3.3c1.4-1.6,3-3.1,4.7-4.3c1.7-1.2,3.6-2.3,5.5-3.2c0.5-0.2,1-0.4,1.5-0.7
				"/>
			<path class="st3" d="M419.7,215.4C419.8,215.4,419.8,215.4,419.7,215.4"/>
			<path class="st3" d="M416.7,226.6c0.3-2.1,0.7-4.2,1.2-6.3c0.2-0.5,0.3-1,0.5-1.5l0.5-1.5c0.2-0.5,0.4-1,0.6-1.5
				c0-0.1,0.1-0.2,0.2-0.4"/>
			<path class="st3" d="M417.2,219c-0.1,0.3-0.2,0.6-0.3,1c-0.6,2.1-1,4.3-1.3,6.5"/>
			<path class="st3" d="M419.2,214.2l-0.2,0.4c-0.1,0.2-0.3,0.5-0.4,0.7c0,0.1-0.1,0.2-0.1,0.3"/>
			<path class="st3" d="M425.4,206c-0.8,0.7-1.6,1.5-2.3,2.3c-0.9,1-1.7,2.1-2.4,3.2"/>
			<path class="st3" d="M441.6,198c-0.5,0.1-1.1,0.2-1.6,0.4c-2.1,0.6-4.2,1.3-6.2,2.2c-2,0.9-3.9,2-5.6,3.3"/>
			<path class="st3" d="M482.3,212.2c1.7,1.1,3.6,2.1,5.5,2.8c2.1,0.7,4.3,1.2,6.5,1.2c2.2,0,4.4-0.3,6.5-0.8l-1.6,0.3
				c-0.5,0.1-1.1,0.1-1.6,0.2c-0.3,0-0.5,0-0.8,0l-0.8,0c-0.3,0-0.5,0-0.8,0l-0.8,0c-2.2-0.1-4.3-0.6-6.3-1.4
				c-2-0.8-3.9-1.9-5.7-3.1c-1.8-1.2-3.5-2.5-5.3-3.8c-1.8-1.2-3.6-2.5-5.5-3.6c-0.9-0.6-1.9-1.1-2.9-1.6c-1-0.5-2-1-3-1.4
				c-0.5-0.2-1-0.5-1.5-0.7l-0.8-0.3l-0.8-0.3l-0.8-0.3l-0.8-0.3l-0.8-0.3l-0.8-0.2c-2.1-0.6-4.3-1-6.5-1.3c-0.6,0-1.1-0.1-1.7-0.1
				l-1.7-0.1l-1.7,0c-0.3,0-0.6,0-0.8,0l-0.8,0.1c-0.8,0.1-1.7,0.2-2.5,0.3"/>
			<path class="st3" d="M478.4,209.7l0.8,0.5l1.3,0.9c0.5,0.3,0.9,0.6,1.4,0.9c0.1,0.1,0.2,0.1,0.3,0.2"/>
			<line class="st3" x1="477.9" y1="209.3" x2="478.4" y2="209.7"/>
			<path class="st3" d="M479.8,252.8c6.1,8.3,7,17.7-2.9,17.3c8.6,3,13.7-3.8,8.4-12.9"/>
		</g>
		<g>
			<path class="st3" d="M715.8,353c1.4-3,2.4-6.1,2.6-9.2c0.5-7.2-1.9-10.6-5.1-13.7c0,0-0.2-0.2-1.8-2c-1.6-1.9,0.3-0.6,0.3-0.6
				c0.1,0.1,0.2,0.2,0.4,0.3c4.2,3.8,7.8,7.1,7.1,15.9c-0.2,3-1.2,6.1-2.5,9l0,0.5c5.2-3.5,7.9-0.7,7.4,1.8c-3.3-2-6.2-1.3-9.4,1.6"
				/>
			<path class="st3" d="M686.2,349.9c0-2.5,2.3-1.5,4.1-3.1c1.9-1.6,2.6-2.5,1.9-4.2c2.1-1,1.2-3.7,2.7-5.1c-3.3-1.1-6.5,1.5-7,3.6
				c-1.3,0.6-1.7,3.5-2,5.1"/>
			<path class="st3" d="M687.3,368c-2.4-1.2-4.2-0.2-6.3,0.5c-2.2,0.6-3.8-0.2-5.4-1.8c2.1,5.8,7.8,5.2,11.6,3.3
				c0,0,1.3-0.5,1.5-0.7"/>
			<path class="st3" d="M688.2,366.2c-3.4-3.1-5.9-1.4-7.8-0.6c-1.9,0.8-3,1.4-4.8,1c1.5,1.7,3.1,2.5,5.4,1.9
				c2.2-0.6,3.9-1.7,6.3-0.5c0.8,0.2,1.1,0.5,1.1,0.5"/>
			<path class="st3" d="M700.3,410.5c2.4-1.3,2.5-3.3,3.3-5.4c0.8-2.2,2.4-3,4.6-3.3c-5.9-1.6-8.8,3.4-9.4,7.5"/>
			<path class="st3" d="M701.3,412.2c4.5-1,4.6-4,5-6c0.4-2,0.6-3.2,1.9-4.5c-2.3,0.3-3.8,1.1-4.6,3.3c-0.7,2.1-0.9,4.2-3.3,5.4"/>
			<path class="st3" d="M691.2,389.7c-4.6-3.2-6.2-1.8-8.9-1.4c-2.7,0.4-5.7-1.7-9.3-5.5c7.8,11.8,15.6,12.8,19.6,10.5"/>
			<path class="st3" d="M691,386.6c-7.5-7.2-9.7-4.9-11.8-4c-2.1,0.9-3.2,1.6-6.2,0.2c3.6,3.8,6.6,5.9,9.3,5.5
				c2.7-0.4,4.3-1.8,8.9,1.4l0.5,0.3"/>
			<path class="st3" d="M714.6,357c-2.4,4-5.2,7.8-7.7,11c-0.7,0.9-1.4,1.8-2,2.7c-5.1,6.9-8.3,13-8.7,22.3c0,0-0.5,7.9-0.1,9.1
				c1.7,5,4,9.7,7.2,14.4l10.5,8.3"/>
			<path class="st3" d="M714.1,355.6c0.9-6.5,0.7-12.9-6.8-12.2c4.6-2.7,10.4,0.2,8.3,9.5"/>
			<line class="st3" x1="714.9" y1="356.6" x2="714.5" y2="357.2"/>
			<path class="st3" d="M640.2,324.9c2.7,0,6.2,0.1,6.2,0.1l6.3-0.1c7.8-0.1,14.9,1.1,23.2,10.6c9.9,11.3,12.5,30.6,14.4,44.7
				c0.3,2,0.5,4,0.8,5.8c1.7,11.1,4.1,20.5,9.8,29.4l0.6,0.8l-1-0.6c-1-0.4-2-0.8-2.9-1.2c-14.5-5-21.7-0.5-30,4.8
				c-0.2,0.1-2.1,1.8-2.3,1.9l6.7-2.8c6.7-4,13.5-6.5,25.4-2.4c6.1,2.1,11.7,6.1,16.8,10.9"/>
			<path class="st3" d="M714.1,355.8c-2.5-6-7.7-6-9.4-0.8c2.7-3.7,5.8-2.3,7.8,1.2c0,0,1,1.1,0.8,1.4c-2.3,3.7-4.9,7.1-7.1,10.1
				c-0.7,0.9-1.4,1.8-2,2.7c-5.1,6.9-8.4,13.1-8.8,22.4c0.1,0.8-0.1,4.6-0.9,3.6c-0.9-3.5-1.6-7.1-2.1-11c-0.3-1.8-0.5-3.7-0.8-5.8
				c-1.1-8-2.4-17.6-5.1-26.6l-0.2-1.9c0-0.3,0-0.5,0-0.8c0-0.7,0.1-1.3,0.2-2c0.2-1.3,0.7-2.6,1.3-3.8c0.3-0.6,0.6-1.2,1-1.7
				c0.2-0.3,0.4-0.6,0.5-0.8l0.3-0.4c0.1-0.1,0.2-0.3,0.3-0.4c0.4-0.5,0.9-1,1.4-1.5c0.5-0.4,1-0.9,1.6-1.2c-0.6,0.3-1.2,0.6-1.8,1
				c-0.6,0.4-1.1,0.8-1.6,1.3c-0.5,0.5-1,1-1.4,1.6c-0.4,0.6-0.8,1.2-1.1,1.8c-0.5,0.9-0.8,1.9-1.1,2.9c0,0-0.9,1.3-1.5-0.3
				c-2-4.7-4.3-9.1-7.5-12.7c-10.1-11.6-18.6-11.2-28.4-10.7l-4.3-0.2c-1,0-2.5,0-4.2,0.1"/>
			<path class="st3" d="M649.7,322.9c-3-4.1-1.7-6.4-1.4-9.6c0.3-3.2-1.6-5.9-5.1-8.8c10.7,5.1,11.7,13.6,9.8,18.8"/>
			<path class="st3" d="M646.8,323.5c-6.6-6.2-4.4-9.3-3.6-12c0.8-2.6,1.4-4.1,0-7c3.4,2.9,5.4,5.6,5.1,8.8
				c-0.3,3.1-1.5,5.4,1.4,9.6l0.2,0.5"/>
			<path class="st3" d="M715.8,334.3c-1.5-0.4-2.4,0.4-3.6,1c-1.2,0.6-2.2,0.4-3.2-0.4c1.5,2.8,4.7,1.8,6.8,0.4l0.8-0.7"/>
			<path class="st3" d="M716.2,333.2c-2.1-1.3-3.4-0.1-4.5,0.6c-1,0.7-1.6,1.1-2.7,1.1c1,0.7,1.9,0.9,3.2,0.4c1.2-0.6,2.1-1.4,3.6-1
				l0.8-0.2"/>
			<path class="st3" d="M657.8,327.1c-3.3,2-3.6,5.1-4.8,8.5c-1.2,3.4-3.4,4.7-6.4,5.1c7.9,2.6,12-5.1,13.1-11.6c0,0-0.1-2,1.2-3.3"
				/>
			<path class="st3" d="M656.1,325l-2.8,1.3c-3.1,2.1-3.2,4.9-3.8,7.4c-0.7,3.2-1,5.1-2.9,7c3-0.4,5.2-1.7,6.4-5.1
				c1.1-3.3,1.4-6.5,4.8-8.5l1.7-1.3l0.8-0.3"/>
		</g>
		<g>
			<path class="st3" d="M732.6,226.1c4.4,0.9,7.6,1.7,7.6,1.7c-1-1.9-2.5-2.2-4.6-3.1c-2.2-1-4.5-2.8-5.4-4.7
				c-1-1.9-1.7-4.1-4.1-5.8c0.8,1.4,0.7,3.5,0.7,5.7C726.9,222.1,728.2,225.1,732.6,226.1z"/>
			<path class="st3" d="M726.2,214.1c2.4,1.7,3.1,3.9,4.1,5.8c1,1.9,3.3,3.8,5.4,4.7c2.2,1,3.6,1.3,4.6,3.1
				c-0.9-2.7-2.2-4.3-3.9-5.9c-1.7-1.6-2.1-2.5-2.8-4.3C732.8,215.8,730.5,213.8,726.2,214.1z"/>
			<path class="st3" d="M741.3,230.7c-2.7-1.5-5.4-2.1-7.9-1.5c-2.9,0.7-5.3,1.8-7.9,1.1c1.6,2.6,5.2,4.5,7.6,3.6
				c2.2-0.8,5.1-2.8,8.7-1.2"/>
			<path class="st3" d="M732.1,225.9c-0.4,0.2-0.8,0.4-1.1,0.7c-2.7,2.2-3.8,2.9-5.4,3.6c2.5,0.8,5-0.4,7.9-1.1
				c2.5-0.6,5.3,0,7.9,1.5"/>
			<path class="st3" d="M751,249.7c-3.1-1.7-5.8-2-8.6-0.8c-4.2-2.1-12.8-0.1-15.4,6.7c4.2-0.4,7.4,4.6,12,2.5
				c1.9,3.4,4.3,3.4,9.5,2.5c5.2-0.9,6.5-5.9,10.7-2.6"/>
			<path class="st3" d="M759.8,255.8c-0.7-1.8,0.2-3.6,1.4-5.6c1.6-2.6,2.6-4.6,0.5-7.8c1.6-1.4,0.6-3.4-0.1-5.1
				c-0.8-1.7,0.4-3.6,2.1-5.3c1.7-1.7,1.4-4.5,1.4-4.5s-1.4,1.3-5.3,2.5c-3.9,1.2-6.2,2.2-6.6,5.6c-1.6,1.9-3.5,4.6-2.1,10.8"/>
			<path class="st3" d="M777.2,281.2c4.1,0.2,5.8-2.4,8.4-4.5c2.7-2.2,5.4-2.1,8.5-0.8c-6.5-6.6-13.9-2.3-17.9,2.6"/>
			<path class="st3" d="M777.1,284.2c6.6,2.2,8.9-1.7,11-4c2.1-2.3,3.2-3.8,5.9-4.3c-3.1-1.4-5.8-1.5-8.5,0.8
				c-2.6,2.2-4.3,4.7-8.4,4.5"/>
			<path class="st3" d="M755.4,253.9c-2-0.9-4.1-1.7-6.3-2.2c-1.4-0.3-2.9-0.6-4.4-0.6c-1.5-0.1-3,0-4.4,0.2
				c-1.5,0.2-2.9,0.5-4.3,0.9c-1.4,0.4-2.8,0.9-4.1,1.6c1.4-0.4,2.8-0.7,4.2-1c1.4-0.2,2.8-0.3,4.3-0.3c0.4,0,0.7,0,1.1,0l1.1,0.1
				c0.7,0.1,1.4,0.1,2.1,0.2c1.4,0.2,2.8,0.4,4.2,0.7c2.7,0.6,5.4,1.6,7.9,3c1.2,0.7,2.4,1.4,3.5,2.3c1.1,0.8,2.1,1.8,2.9,2.8"/>
			<path class="st3" d="M758.1,254.2c-0.9-2.1-1.7-4.3-2.2-6.5l-0.1-0.4l-0.1-0.4l-0.1-0.8c0-0.3,0-0.5,0-0.8c0-0.3,0-0.6,0-0.8
				c0.1-1.1,0.2-2.2,0.4-3.3l0.2-0.8c0.1-0.3,0.2-0.5,0.3-0.8c0.1-0.3,0.2-0.5,0.3-0.8c0.1-0.3,0.2-0.5,0.3-0.8
				c0.2-0.5,0.5-1,0.8-1.5l0.4-0.7c0.1-0.2,0.3-0.5,0.4-0.7c1.2-1.9,2.8-3.7,4.3-5.4l-1.4,1.1l-0.7,0.6c-0.2,0.2-0.4,0.4-0.6,0.6
				c-0.4,0.4-0.9,0.8-1.3,1.2l-1.2,1.3c-0.2,0.2-0.4,0.5-0.6,0.7l-0.5,0.7c-0.4,0.5-0.7,1-1,1.5l-0.2,0.4c-0.1,0.1-0.2,0.3-0.2,0.4
				c-0.1,0.3-0.2,0.6-0.4,0.8c-0.1,0.3-0.3,0.6-0.3,0.9l-0.3,0.9c-0.2,0.6-0.3,1.2-0.4,1.8c0,0.2-0.1,0.3-0.1,0.5l0,0.5l-0.1,0.9
				c0,0.3,0,0.6,0,0.9c0,0.3,0,0.6,0.1,0.9l0.1,0.9l0.1,0.5l0.1,0.4c0.2,1,0.5,2,0.8,2.9"/>
			<line class="st3" x1="758.9" y1="363.9" x2="759.6" y2="364.6"/>
			<path class="st3" d="M758,254c0.3,0.3,0.5,0.5,0.8,0.8c9.6,9.4,17.8,17.6,20.1,38.8c1.6,14.4-3.1,31.6-8.1,44.2"/>
			<path class="st3" d="M777.3,306.1c-0.8,8.8-3.5,18-6.5,26"/>
			<path class="st3" d="M761.9,260.4c7.4,7.7,13.4,16.1,15.3,33.4c0.3,2.4,0.4,4.7,0.3,7.1"/>
			<path class="st3" d="M755.5,253.9c-0.7-0.7-1.4-1.4-2.2-2.2c-11.1-11.4-14.4-25.5-12.8-33.8l0.4-3.3"/>
			<path class="st3" d="M755,251c-0.1-0.1-0.3-0.3-0.4-0.4c-11.4-11.7-13.9-25.7-12.7-32.2l0.5-3.3"/>
			<path class="st3" d="M808.9,192.9l2.7,1.4l5,5.8c1.8,1.8,6.6,5.5,11.1,2.1c3,0.2,4.4-1.6,5.4-2.8c1-1.3,3.3-2.5,3.3-2.5
				s-1.7,0.4-4.1-0.7c-2.4-1.1-4.2-3-7-1.7c-2-1.8-3.9-1.9-6.6-1.2c-2.8,0.7-2.4,3.3-6.7,0.2"/>
			<path class="st3" d="M803,189.2c1.4,1.2,2.8,2.4,4.2,3.6c1.4,1.2,2.7,2.5,3.8,3.9c2.4,2.8,4.2,6,5.1,9.5c0.4,1.7,0.6,3.6,0.5,5.4
				c-0.1,1.8-0.4,3.6-0.8,5.4l-0.2,0.7l-0.1,0.3l-0.1,0.3c-0.1,0.4-0.3,0.9-0.4,1.3l-0.5,1.3c-0.1,0.2-0.2,0.4-0.2,0.6l-0.3,0.6
				c-0.7,1.7-1.5,3.4-2.4,5c1.1-1.5,2.1-3.1,3-4.7c0.5-0.8,0.8-1.7,1.2-2.5c0.3-0.9,0.7-1.8,0.9-2.7c0.5-1.8,0.9-3.7,1-5.6
				c0.1-1.9-0.1-3.8-0.5-5.7c-0.4-1.9-1.2-3.6-2.1-5.3c-0.9-1.7-2-3.2-3.2-4.6c-1.1-1.3-2.4-2.6-3.6-3.7"/>
			<path class="st3" d="M742.2,207.9c0.2-7.3-3.1-13.1-8.7-8.9c3.8-5.2,9.5-3.3,10.1,4.1"/>
			<path class="st3" d="M744.3,201.5c0.9-7.5,0.6-15-8.1-14c5.2-3.2,12.1,0.1,9.8,10.9"/>
			<path class="st3" d="M745.1,202.7c3.7-3.4,7-4.2,10.9-2c0.6-3-2.9-6.4-9.4-1.4"/>
			<path class="st3" d="M763.1,185.7c1.1,1.5,3.3,5.6,4.9,4.8c0.8,1.5,2.5,2.1,4.5,1.8c2-0.2,3.7-0.5,5.6,0.5
				c0.2-3.6-0.5-7.8-7.7-10"/>
			<path class="st3" d="M768.5,181.8c2.5-2.1,1.4-3.6,1.3-5.7c-0.1-2.6-0.1-3.6,1-4.6c0.3-1.9,1.2-2.7,2.2-3.3
				c1-0.5,1.5-3.2,0.3-5.5c2.4,1.2,4.6,3.2,4.6,5.6c2,3.7,1.1,7.8-6.3,12.3"/>
			<path class="st3" d="M750.7,189.2c-0.3-1.7-1.4-3.2-3.2-4c-2.1-1-4.9-1.2-4.7-5.1c-1.8,0.3-2.8-0.3-4.1-2.6
				c-1.3-2.3-3.1-4.3-5-5.3c4.6-2.1,12.3-2.5,17.6,6.3"/>
			<path class="st3" d="M750.4,183c-0.3-0.6-0.7-1.1-1-1.7c-1.1-1.7-2.5-3.3-4-4.6c-0.8-0.7-1.6-1.3-2.5-1.8
				c-0.2-0.1-0.4-0.3-0.7-0.4l-0.7-0.4c-0.5-0.2-0.9-0.5-1.4-0.7c-0.9-0.4-1.9-0.7-2.9-0.9c-1-0.2-2-0.4-3-0.4c1,0.3,1.9,0.7,2.8,1
				c0.9,0.4,1.8,0.8,2.7,1.2c0.9,0.4,1.7,0.9,2.5,1.5c0.8,0.5,1.6,1.1,2.3,1.8c1.5,1.3,2.8,2.8,3.9,4.4c0.5,0.8,1,1.7,1.5,2.5
				c0.3,0.6,0.5,1.2,0.8,1.7"/>
			<path class="st3" d="M750.9,191.2c1-2.6,0.1-3.6-0.3-5.5c-0.5-2.1-0.4-3.9,0.8-4.6c-0.8-2.9,0.2-4.6,1.3-6.6
				c1.1-2,1.6-5.3-0.3-8.2c3.7,1.6,12.4,6.4,4.8,20.5"/>
			<path class="st3" d="M753.7,189.4c0.5-0.8,0.9-1.7,1.3-2.5c1-2.1,1.7-4.4,2.1-6.7c0.2-1.2,0.3-2.3,0.3-3.5c0-1.2-0.1-2.4-0.5-3.5
				c-0.6-2.3-2-4.4-3.8-5.9c0.7,0.9,1.3,1.9,1.8,2.9c0.5,1,0.8,2.1,1,3.2c0.2,1.1,0.3,2.2,0.3,3.3c0,1.1-0.1,2.2-0.3,3.3
				c-0.4,2.2-1.1,4.4-2,6.4c-0.5,1-1,2-1.5,3c-0.6,1-1.2,1.9-1.9,2.8"/>
			<path class="st3" d="M761.3,185.9c1.5-0.2,3-0.2,4.6,0c1.5,0.2,3,0.6,4.4,1.1c0.4,0.1,0.7,0.3,1,0.5c0.3,0.2,0.7,0.4,1,0.5
				c0.7,0.4,1.3,0.8,1.9,1.3c1.2,0.9,2.4,1.9,3.5,3.1c-0.7-1.4-1.7-2.8-2.9-3.8c-0.6-0.5-1.3-1-2-1.4c-0.4-0.2-0.7-0.4-1.1-0.6
				c-0.4-0.2-0.7-0.4-1.1-0.5c-1.5-0.6-3.1-1-4.7-1.2c-0.6-0.1-1.2-0.1-1.8-0.1"/>
			<path class="st3" d="M770.7,181.5c0.7-0.7,1.4-1.4,2-2.1c1.2-1.5,2.3-3.2,3-5c0.4-0.9,0.6-1.9,0.8-2.8s0.2-2,0.1-3
				c-0.2-2-1.1-3.9-2.5-5.2c0.5,0.8,0.8,1.7,1.1,2.6c0.3,0.9,0.4,1.8,0.4,2.7c0,0.9,0,1.8-0.2,2.7c-0.2,0.9-0.4,1.8-0.8,2.6
				c-0.7,1.7-1.6,3.3-2.8,4.7c-0.6,0.7-1.2,1.4-1.9,2c-0.7,0.6-1.4,1.2-2.2,1.6"/>
			<path class="st3" d="M812.1,211.7c-1.3,1.7-2.7,2.4-4.6,3.6c-2.5,1.6-3.8,2.7-4.5,4.8c-2.2-2-3.4-6.6,0.7-9.2
				c1.2-4.5,3.5-5.8,5.4-6.8c1.4-0.8,3.4-2.3,4.1-4"/>
			<path class="st3" d="M813.7,202.9c-0.4,1-1.3,1.8-1.9,2.6c-0.5,0.7-1.1,1.4-1.8,2c-0.2,0.1-0.3,0.3-0.5,0.4
				c-0.2,0.1-0.4,0.3-0.5,0.4c-0.4,0.3-0.8,0.5-1.1,0.8c-0.8,0.6-1.5,1.2-2.2,1.9c-0.7,0.7-1.2,1.6-1.6,2.4
				c-0.4,0.9-0.7,1.8-0.9,2.7c-0.1,0.5-0.2,0.9-0.2,1.4c0,0.2,0,0.5-0.1,0.7c0,0.2,0,0.5-0.1,0.7c0.6-1.8,1.3-3.5,2.2-5.1
				c0.4-0.8,0.9-1.5,1.5-2.2c0.6-0.7,1.3-1.2,2-1.8c0.4-0.3,0.7-0.5,1.1-0.8c0.2-0.1,0.4-0.3,0.6-0.4c0.2-0.2,0.4-0.3,0.6-0.5
				c0.7-0.6,1.4-1.4,2-2.2c0.2-0.4,0.8-1.2,1-1.5"/>
			<path class="st3" d="M812.7,198.8c1.5,3.1,1.7,6.6-0.4,12.4c-2.1,5.8-2.5,6.5-1.8,9.5c0.7,3,1.5,5,0.1,7.3
				c3.2-0.7,6.3-2.8,7.7-6.8c3-2.8,3.6-8.3,1.7-11.9c0.3-1.6-2.9-5.4-4.8-8.6"/>
			<line class="st3" x1="808.1" y1="192.2" x2="808.6" y2="192.5"/>
			<path class="st3" d="M803,189.2c0.1,0,0.1,0.1,0.2,0.1"/>
			<path class="st3" d="M764.6,184.5c0.6-0.2,1.3-0.5,2-0.7c2.3-0.7,4.6-1.2,6.9-1.5l0.9-0.1c0.3,0,0.6-0.1,0.9-0.1l1.8-0.1l1.8,0
				c0.6,0,1.2,0,1.8,0c2.4,0.1,4.7,0.4,7,1l0.9,0.2l0.8,0.3l0.8,0.3l0.8,0.3l0.8,0.3l0.8,0.3c0.6,0.2,1.1,0.4,1.7,0.6
				c3,1.2,5.9,2.6,8.8,4.1"/>
			<path class="st3" d="M746.8,199.1c0.7-1.3,1.6-2.6,2.5-3.7c1.4-1.9,3.1-3.5,4.9-5c1.8-1.5,3.8-2.8,5.9-3.9
				c0.5-0.3,1.1-0.6,1.6-0.8"/>
			<line class="st3" x1="745.1" y1="202.6" x2="745.1" y2="202.6"/>
			<path class="st3" d="M742.4,215.1c0.2-2.4,0.5-4.7,1-7c0.1-0.6,0.3-1.1,0.4-1.7l0.5-1.7c0.2-0.6,0.4-1.1,0.6-1.7
				c0-0.1,0.1-0.3,0.2-0.4"/>
			<path class="st3" d="M742.5,206.7c-0.1,0.4-0.2,0.7-0.3,1.1c-0.5,2.4-1.4,4.9-1.4,7.3"/>
			<path class="st3" d="M744.4,201.3l-0.2,0.5c-0.1,0.3-0.2,0.6-0.3,0.8c0,0.1-0.1,0.3-0.1,0.4"/>
			<path class="st3" d="M750.7,192c-0.8,0.9-1.6,1.8-2.4,2.7c-0.9,1.2-1.7,2.4-2.4,3.7"/>
			<path class="st3" d="M768,182.2c-0.6,0.2-1.2,0.3-1.7,0.5c-2.3,0.7-4.5,1.7-6.7,2.8c-2.1,1.1-4.1,2.4-6,3.9"/>
			<path class="st3" d="M813.5,195.4c2,1.1,4,2.1,6.2,2.7c2.3,0.7,4.8,1,7.2,0.9c2.4-0.1,4.8-0.6,7.1-1.3l-1.8,0.4
				c-0.6,0.1-1.2,0.2-1.8,0.3c-0.3,0.1-0.6,0.1-0.9,0.1l-0.9,0.1c-0.3,0-0.6,0-0.9,0l-0.9,0c-2.4,0-4.7-0.4-7-1.2
				c-2.2-0.7-4.4-1.8-6.4-3c-2-1.2-4-2.6-6.1-3.8c-2-1.3-4.1-2.5-6.2-3.6c-1.1-0.6-2.2-1.1-3.2-1.6c-1.1-0.5-2.2-1-3.3-1.4
				c-0.6-0.2-1.1-0.4-1.7-0.6l-0.8-0.3l-0.9-0.3l-0.9-0.3l-0.9-0.3l-0.9-0.3l-0.9-0.2c-2.4-0.6-4.8-0.9-7.2-1c-0.6,0-1.2,0-1.8,0
				l-1.8,0l-1.8,0.1c-0.3,0-0.6,0.1-0.9,0.1l-0.9,0.1c-0.9,0.1-1.8,0.3-2.7,0.5"/>
			<path class="st3" d="M809.1,192.8l0.9,0.5l1.5,0.9c0.5,0.3,1,0.6,1.6,0.9c0.1,0.1,0.3,0.1,0.4,0.2"/>
			<line class="st3" x1="808.6" y1="192.5" x2="809.1" y2="192.8"/>
			<path class="st3" d="M777.3,306.2c-2.2-8.8-8.2-13.5-13.4-6.7c2.8-7.4,10.2-7.2,13.5,1.5"/>
		</g>
		<g>
			<path class="st3" d="M299.6,309.9c4.1-2.9,7.3-5,7.3-5c-2.3-0.6-3.7,0.4-6.1,1.4c-2.4,1-5.8,1.5-8.1,0.8
				c-2.3-0.7-4.7-1.8-7.9-1.1c1.8,0.4,3.4,2.1,5.3,3.8C292,311.6,295.5,312.8,299.6,309.9z"/>
			<path class="st3" d="M284.8,306.1c3.2-0.7,5.6,0.4,7.9,1.1c2.3,0.7,5.6,0.2,8.1-0.8c2.4-1,3.8-2,6.1-1.4
				c-2.9-1.4-5.2-1.5-7.8-1.3c-2.6,0.2-3.6-0.1-5.7-0.9C291.3,301.9,287.9,302.3,284.8,306.1z"/>
			<path class="st3" d="M310.1,306.3c-3.3,1-5.9,2.8-7.3,5.4c-1.6,2.9-2.6,5.8-5.2,7.3c3.4,0.6,7.6-0.9,8.8-3.5
				c1-2.4,1.7-6.4,5.7-8.1"/>
			<path class="st3" d="M299.1,310.3c-0.1,0.5-0.2,1-0.3,1.5c-0.2,3.9-0.5,5.3-1.2,7.2c2.6-1.5,3.5-4.4,5.2-7.3
				c1.4-2.6,4-4.4,7.3-5.4"/>
			<path class="st3" d="M333.2,312.9c-3.8,1.2-6.1,3.3-7.2,6.5c-5,1.9-9.9,10.5-6.3,17.8c2.9-3.8,9.5-2.6,11.2-8
				c4.2,1.1,6.1-0.9,9.3-5.9c3.3-5,0.1-9.9,6.1-10.8"/>
			<path class="st3" d="M345,310.3c-2-0.8-2.8-3-3.5-5.4c-0.9-3.3-1.8-5.7-6.1-6.4c0.1-2.4-2.3-3.1-4.3-3.8c-2-0.7-2.7-3.1-2.8-5.8
				c-0.2-2.7-2.7-4.6-2.7-4.6s0,2.2-1.9,6.3c-2,4.2-2.9,6.8-0.5,9.7c0.4,2.8,1.1,6.5,7.3,10"/>
			<path class="st3" d="M340,312.5c-2.3,1-4.5,2.1-6.6,3.5c-1.4,0.9-2.7,2-3.9,3.1c-1.2,1.2-2.3,2.5-3.2,3.8c-1,1.4-1.8,2.8-2.6,4.3
				c-0.7,1.5-1.3,3-1.8,4.6c0.7-1.5,1.5-2.9,2.4-4.2c0.9-1.3,1.9-2.6,3-3.8c0.3-0.3,0.5-0.6,0.8-0.9l0.9-0.8
				c0.6-0.5,1.2-1.1,1.8-1.6c1.2-1,2.4-2,3.8-2.9c2.6-1.8,5.5-3.2,8.5-4.2c1.5-0.5,3-0.9,4.6-1.2c1.5-0.3,3.1-0.4,4.6-0.2"/>
			<path class="st3" d="M342.5,310.4c-2.4-0.9-4.8-1.9-7-3.2l-0.4-0.2l-0.4-0.3l-0.8-0.5c-0.3-0.2-0.5-0.4-0.7-0.6
				c-0.2-0.2-0.5-0.4-0.7-0.6c-0.9-0.9-1.7-1.8-2.3-2.9l-0.5-0.8c-0.2-0.3-0.3-0.6-0.4-0.8c-0.1-0.3-0.3-0.6-0.4-0.8
				c-0.2-0.3-0.2-0.6-0.4-0.9c-0.2-0.6-0.5-1.2-0.7-1.8l-0.3-0.9c-0.1-0.3-0.2-0.6-0.3-0.9c-0.7-2.5-0.9-5.1-1.1-7.7l-0.2,2l-0.1,1
				c0,0.3,0,0.7,0,1c0,0.7,0,1.3,0,2l0.2,2c0,0.3,0.1,0.7,0.1,1l0.2,1c0.1,0.7,0.3,1.3,0.5,2l0.1,0.5c0.1,0.2,0.1,0.3,0.2,0.5
				c0.1,0.3,0.3,0.6,0.4,0.9c0.1,0.3,0.3,0.6,0.4,0.9l0.5,0.9c0.3,0.6,0.8,1.1,1.2,1.7c0.1,0.1,0.2,0.3,0.3,0.4l0.4,0.4l0.7,0.8
				c0.2,0.2,0.5,0.5,0.8,0.7c0.3,0.2,0.5,0.5,0.8,0.7l0.8,0.6l0.4,0.3l0.4,0.3c1,0.6,2,1.1,3,1.6"/>
			<path class="st3" d="M342.2,310.4c0.4,0,0.9,0,1.3-0.1c6.6-0.3,10.6-1.1,17-0.1"/>
			<path class="st3" d="M350.4,312c4.2-0.1,6.1-0.5,10.3,0.2"/>
			<path class="st3" d="M340.2,312.4c-1.1,0-2.3,0.1-3.5,0.1c-17.9,0.4-32.1-7.7-37.7-15.3l-2.4-2.9"/>
			<path class="st3" d="M337.3,310.5c-0.2,0-0.4,0-0.7,0c-18.4,0.4-31.9-8.2-36.3-14.2l-2.3-2.9"/>
			<path class="st3" d="M330.7,221.4l3.2-1.1l8.6,0.4c2.9-0.1,9.6-1.2,10.3-7.6c2.5-2.4,2.1-4.9,1.8-6.7c-0.3-1.8,0.4-4.6,0.4-4.6
				s-1,1.7-3.8,2.8c-2.8,1.1-5.7,1.2-6.8,4.5c-3.1,0.3-4.5,1.7-6.1,4.5c-1.5,2.8,0.8,4.5-5,5.7"/>
			<path class="st3" d="M323.2,223.5c2.1-0.3,4.1-0.5,6.2-0.7c2.1-0.2,4.1-0.2,6.2-0.2c4.1,0.2,8.2,1.1,11.7,3.1
				c1.8,1,3.4,2.2,4.8,3.7c1.4,1.4,2.7,3.1,3.8,4.8l0.4,0.6l0.2,0.3l0.2,0.3c0.3,0.4,0.5,0.9,0.8,1.3l0.7,1.4
				c0.1,0.2,0.2,0.5,0.3,0.7l0.3,0.7c0.9,1.9,1.6,3.8,2.3,5.8c-0.4-2-0.9-4.1-1.6-6.1c-0.3-1-0.8-2-1.2-2.9c-0.5-1-0.9-1.9-1.5-2.8
				c-1.1-1.8-2.4-3.6-3.9-5.1c-1.5-1.5-3.2-2.9-5.1-3.9c-1.9-1.1-3.9-1.8-6-2.3c-2.1-0.5-4.2-0.8-6.3-0.9c-2-0.1-3.9,0-5.9,0.1"/>
			<path class="st3" d="M292,288c-5.9-5.8-13.2-7.5-14,0.3c-1.4-7.1,4.5-10.4,11.2-5.2"/>
			<path class="st3" d="M288.3,281.5c-5.5-6.5-11.9-12-17.8-4.1c1.3-6.8,9.3-9.9,16.5,0.2"/>
			<path class="st3" d="M289.9,281.7c0-5.7,1.9-9,6.7-10.5c-2-2.8-7.5-2.5-8.3,6.7"/>
			<path class="st3" d="M289.6,253.8c2.1,0.2,7.1,1.5,7.7-0.4c1.9,0.5,3.6-0.4,5-2.3c1.4-1.9,2.4-3.5,4.7-4.3
				c-2.8-3-6.9-5.6-14.2-1.4"/>
			<path class="st3" d="M290.6,246.3c0.1-3.7-1.9-3.9-3.7-5.5c-2.2-1.9-3.1-2.7-3.1-4.4c-1.3-1.8-1.4-3.1-1-4.3
				c0.3-1.2-1.5-3.8-4.3-4.5c2.8-1.1,6.2-1.4,8.2,0.5c4.6,1.2,7.2,5.1,5.4,14.6"/>
			<path class="st3" d="M283,266.7c-1.7-1-3.7-1.3-5.8-0.4c-2.5,1-4.7,3.1-7.9-0.1c-1.1,1.7-2.3,2.1-5.3,1.4c-2.9-0.7-6-0.7-8.2,0.1
				c1.7-5.4,7.4-12.1,18.7-9.7"/>
			<path class="st3" d="M277.7,262.2c-0.7-0.2-1.4-0.3-2.2-0.4c-2.3-0.4-4.6-0.4-6.9-0.2c-1.2,0.1-2.3,0.3-3.4,0.6
				c-0.3,0.1-0.6,0.1-0.8,0.2l-0.8,0.3c-0.5,0.2-1.1,0.4-1.6,0.6c-1,0.5-2.1,1-3,1.7c-0.9,0.6-1.8,1.4-2.6,2.2c1-0.5,2-1.1,3-1.5
				c1-0.5,2-0.9,3.1-1.3c1-0.4,2.1-0.7,3.2-1c1.1-0.3,2.2-0.4,3.2-0.5c2.2-0.2,4.4-0.2,6.6,0.2c1.1,0.2,2.2,0.4,3.2,0.7
				c0.7,0.2,1.4,0.4,2,0.7"/>
			<path class="st3" d="M284.9,268.1c-1.4-2.8-2.9-2.8-4.8-4c-2.1-1.2-3.5-2.7-3.1-4.2c-3-1.6-3.6-3.7-4.5-6.2c-0.8-2.5-3.2-5.4-7-6
				c4.2-1.9,14.8-5.3,20.6,11.8"/>
			<path class="st3" d="M285.4,264.4c-0.3-1-0.7-2-1.1-3c-1-2.4-2.3-4.8-3.9-6.9c-0.8-1.1-1.7-2.1-2.7-3c-1-0.9-2.1-1.7-3.3-2.3
				c-2.4-1.2-5.2-1.7-7.7-1.4c1.3,0.1,2.6,0.4,3.8,0.8c1.2,0.4,2.3,0.9,3.4,1.6c1.1,0.6,2.1,1.4,3,2.3s1.7,1.8,2.5,2.8
				c1.5,2,2.8,4.3,3.8,6.6c0.5,1.2,0.9,2.4,1.3,3.6c0.4,1.2,0.7,2.5,0.9,3.7"/>
			<path class="st3" d="M288.4,255.4c1-1.4,2.1-2.7,3.5-3.8c1.3-1.1,2.8-2,4.3-2.8c0.4-0.2,0.8-0.3,1.2-0.5c0.4-0.2,0.8-0.3,1.2-0.4
				c0.8-0.2,1.7-0.5,2.5-0.6c1.7-0.3,3.4-0.5,5.2-0.5c-1.7-0.5-3.6-0.7-5.4-0.6c-0.9,0.1-1.8,0.3-2.7,0.5c-0.4,0.1-0.9,0.3-1.3,0.4
				c-0.4,0.2-0.9,0.3-1.3,0.5c-1.7,0.8-3.2,1.8-4.6,3c-0.5,0.4-1,0.9-1.5,1.4"/>
			<path class="st3" d="M292,244.3c0-1.1-0.1-2.2-0.2-3.3c-0.3-2.2-0.9-4.3-1.8-6.3c-0.5-1-1-2-1.7-2.9c-0.7-0.9-1.5-1.7-2.4-2.4
				c-1.8-1.3-4.1-2-6.2-1.9c1,0.3,2,0.6,3,1.1c0.9,0.5,1.8,1,2.5,1.7c0.8,0.7,1.5,1.4,2.1,2.2c0.6,0.8,1.1,1.7,1.6,2.7
				c0.9,1.9,1.5,3.9,1.8,5.9c0.1,1,0.2,2.1,0.2,3.1c0,1-0.1,2.1-0.3,3"/>
			<path class="st3" d="M348.8,233.3c0.4,2.3-0.1,4-0.5,6.5c-0.6,3.2-0.7,5.2,0.5,7.4c-3.4,0.3-8.1-2.3-7-7.6
				c-2.8-4.4-2.1-7.3-1.5-9.7c0.4-1.7,0.7-4.6-0.2-6.4"/>
			<path class="st3" d="M342.7,225.1c0.5,1,0.5,2.5,0.7,3.6c0.2,1,0.3,2,0.2,3c0,0.3,0,0.5,0,0.8c0,0.3,0,0.5-0.1,0.8
				c-0.1,0.5-0.1,1-0.2,1.6c-0.1,1.1-0.2,2.2-0.1,3.3c0.1,1.1,0.4,2.2,0.8,3.2c0.4,1,0.9,2,1.6,2.8c0.3,0.4,0.6,0.9,1,1.3
				c0.2,0.2,0.4,0.4,0.5,0.6c0.2,0.2,0.4,0.4,0.5,0.6c-1-1.9-1.9-3.8-2.5-5.7c-0.3-1-0.5-1.9-0.6-2.9c-0.1-1,0-2,0.1-3
				c0.1-0.5,0.1-1,0.2-1.6c0-0.3,0.1-0.5,0.1-0.8c0-0.3,0-0.5,0-0.8c0-1.1-0.1-2.2-0.3-3.3c-0.1-0.5-0.4-1.6-0.5-2"/>
			<path class="st3" d="M338.5,222.9c3.7,1.2,6.8,3.7,9.9,9.9c3.1,6.2,3.4,7.1,6.5,8.8s5.2,2.6,6.1,5.5c1.8-3.2,2.5-7.3,0.3-11.6
				c0-4.6-4.1-9.3-8.5-10.5c-1.1-1.4-6.7-1.7-10.8-2.6"/>
			<line class="st3" x1="329.5" y1="221.6" x2="330.1" y2="221.4"/>
			<path class="st3" d="M323.2,223.5c0.1,0,0.1,0,0.2-0.1"/>
			<path class="st3" d="M289.8,251.6c0.3-0.7,0.6-1.4,0.9-2.2c1.1-2.4,2.5-4.7,4-6.9l0.6-0.8c0.2-0.3,0.4-0.5,0.6-0.8l1.2-1.6
				l1.3-1.5c0.4-0.5,0.9-1,1.4-1.4c1.9-1.9,3.9-3.6,6.2-5l0.8-0.6l0.9-0.5l0.9-0.5l0.9-0.5l0.9-0.5l0.9-0.5c0.6-0.3,1.2-0.6,1.8-0.9
				c3.3-1.6,6.7-2.9,10.1-4.1"/>
			<path class="st3" d="M288.2,277.6c-0.5-1.6-0.9-3.3-1.2-4.9c-0.4-2.6-0.5-5.3-0.4-7.9c0.2-2.6,0.6-5.3,1.3-7.8
				c0.2-0.7,0.4-1.3,0.6-2"/>
			<line class="st3" x1="289.8" y1="281.6" x2="289.8" y2="281.6"/>
			<path class="st3" d="M298,293.4c-1.8-1.9-3.5-4-5-6.2c-0.4-0.6-0.7-1.1-1.1-1.7l-1-1.7c-0.3-0.6-0.6-1.2-0.9-1.8
				c-0.1-0.1-0.1-0.3-0.2-0.4"/>
			<path class="st3" d="M291.3,286.9c0.2,0.3,0.5,0.7,0.7,1c1.5,2.3,3,4.9,5,6.7"/>
			<path class="st3" d="M288.2,281.2l0.2,0.5c0.1,0.3,0.3,0.6,0.4,0.9c0.1,0.1,0.1,0.3,0.2,0.4"/>
			<path class="st3" d="M285.4,268.8c0.1,1.4,0.2,2.7,0.4,4c0.3,1.6,0.7,3.3,1.2,4.8"/>
			<path class="st3" d="M290.5,247.1c-0.3,0.6-0.6,1.2-0.9,1.8c-1.2,2.5-2.1,5.1-2.8,7.7c-0.7,2.6-1.2,5.2-1.4,7.9"/>
			<path class="st3" d="M336.3,219.6c2.4-0.8,4.8-1.8,7-3.1c2.4-1.4,4.5-3.1,6.3-5.2c1.8-2.1,3.2-4.4,4.4-6.8l-1,1.7
				c-0.3,0.6-0.7,1.1-1.1,1.7c-0.2,0.3-0.4,0.5-0.6,0.8l-0.6,0.8c-0.2,0.3-0.4,0.5-0.7,0.8l-0.7,0.8c-1.8,2-4,3.6-6.3,4.9
				c-2.3,1.3-4.9,2.2-7.4,2.9c-2.6,0.7-5.2,1.4-7.8,2.1c-2.6,0.7-5.2,1.5-7.8,2.4c-1.3,0.5-2.5,1-3.8,1.5c-1.2,0.5-2.5,1.1-3.7,1.7
				c-0.6,0.3-1.2,0.6-1.8,0.9l-0.9,0.5l-0.9,0.5l-0.9,0.5l-0.9,0.5l-0.9,0.5l-0.9,0.6c-2.3,1.5-4.4,3.3-6.3,5.2
				c-0.5,0.5-1,1-1.4,1.5l-1.4,1.5l-1.3,1.6c-0.2,0.3-0.4,0.5-0.6,0.8l-0.6,0.8c-0.6,0.9-1.2,1.7-1.7,2.6"/>
			<path class="st3" d="M330.8,221.2l1.1-0.3l1.9-0.6c0.6-0.2,1.3-0.4,1.9-0.6c0.2-0.1,0.3-0.1,0.5-0.2"/>
			<line class="st3" x1="330.1" y1="221.4" x2="330.8" y2="221.2"/>
		</g>
		<g>
			<path class="st3" d="M177.3,403.3c4.3-1.4,7.5-2.3,7.5-2.3c-1.8-1.1-3.2-0.7-5.5-0.4c-2.3,0.2-5.3-0.2-7.1-1.4
				c-1.8-1.2-3.5-2.8-6.4-3.1c1.4,0.8,2.4,2.7,3.5,4.6C170.4,402.7,173,404.7,177.3,403.3z"/>
			<path class="st3" d="M165.8,396.1c2.9,0.3,4.6,1.9,6.4,3.1c1.8,1.2,4.7,1.7,7.1,1.4c2.3-0.2,3.7-0.7,5.5,0.4
				c-2.1-1.9-4-2.6-6.3-3.2c-2.3-0.5-3-1.1-4.6-2.3C172.4,394.4,169.4,393.8,165.8,396.1z"/>
			<path class="st3" d="M187.1,403.1c-3.1,0-5.7,0.8-7.6,2.6c-2.2,2.1-3.7,4.2-6.3,4.8c2.7,1.4,6.7,1.3,8.3-0.6
				c1.5-1.8,3.1-5,6.9-5.3"/>
			<path class="st3" d="M176.7,403.5c-0.3,0.4-0.5,0.8-0.6,1.2c-1.3,3.3-1.8,4.4-2.9,5.8c2.6-0.6,4.2-2.8,6.3-4.8
				c1.9-1.8,4.5-2.6,7.6-2.6"/>
			<path class="st3" d="M204.9,414.8c-3.5,0-6,1.1-7.8,3.6c-4.7,0.3-11.2,6.2-10.1,13.4c3.5-2.5,8.7,0.3,11.6-3.8
				c3.3,2,5.4,0.8,9.5-2.5c4.1-3.3,2.7-8.4,8-7.6"/>
			<path class="st3" d="M203.3,411.9c-4.3-4.7-3.9-7.9-3.5-10.4c-1.3-3.2,0.2-5.1,3-8.1c2.8-3,3.3-4.8,3.3-4.8s1.6,2.3,1,4.6
				c-0.6,2.3-0.7,4.5,0.8,5.7c1.5,1.1,3.4,2.3,2.6,4.3c3.4,1.7,3.6,4,3.4,7c-0.1,2.3,0,4.3,1.5,5.5l5.3,0.9"/>
			<path class="st3" d="M210.8,416.2c-2.2,0.2-4.4,0.6-6.6,1.2c-1.4,0.4-2.8,1-4.1,1.6c-1.3,0.7-2.6,1.5-3.7,2.4
				c-1.2,0.9-2.3,1.9-3.3,2.9c-1,1.1-1.9,2.2-2.8,3.4c1-1,2.1-2,3.2-2.9c1.1-0.9,2.3-1.7,3.5-2.4c0.3-0.2,0.6-0.4,0.9-0.5l0.9-0.5
				c0.6-0.3,1.3-0.6,1.9-0.9c1.3-0.6,2.6-1.1,3.9-1.5c2.7-0.8,5.5-1.3,8.3-1.3c1.4,0,2.8,0,4.2,0.2c1.4,0.2,2.2,0.3,3.4,0.8"/>
			<path class="st3" d="M213.4,415.2c-1.8-1.4-3.6-2.9-5.1-4.5l-0.3-0.3l-0.3-0.3l-0.5-0.7c-0.2-0.2-0.3-0.5-0.4-0.7
				c-0.1-0.2-0.3-0.5-0.4-0.7c-0.5-1-0.9-2-1.2-3l-0.2-0.8c-0.1-0.3-0.1-0.5-0.1-0.8c0-0.3-0.1-0.5-0.1-0.8c-0.1-0.3,0-0.6-0.1-0.8
				c0-0.6-0.1-1.1-0.1-1.7v-0.9c0-0.3,0-0.6,0-0.9c0.1-2.3,0.6-4.6,1.1-6.9L205,393l-0.3,0.8c-0.1,0.3-0.2,0.6-0.3,0.8
				c-0.2,0.6-0.4,1.1-0.5,1.7l-0.4,1.7c-0.1,0.3-0.1,0.6-0.1,0.9l-0.1,0.9c-0.1,0.6-0.1,1.2-0.1,1.8l0,0.5c0,0.2,0,0.3,0,0.5
				c0,0.3,0.1,0.6,0.1,0.9c0,0.3,0,0.6,0.1,0.9l0.2,0.9c0.1,0.6,0.4,1.2,0.6,1.8c0.1,0.1,0.1,0.3,0.2,0.4l0.2,0.4l0.4,0.8
				c0.1,0.3,0.3,0.5,0.5,0.8c0.2,0.3,0.3,0.5,0.5,0.8l0.6,0.7l0.3,0.4l0.3,0.3c0.7,0.8,1.4,1.5,2.1,2.1"/>
			<path class="st3" d="M180.2,392.4c2.7,8,12.6,18.5,27.9,23c1,0.3,2,0.6,3,0.8"/>
			<path class="st3" d="M209,413.9c-0.2-0.1-0.4-0.1-0.6-0.2c-15.7-4.5-24.6-15.6-26.7-21.9"/>
			<path class="st3" d="M169.7,313.8l1.6-2l5.8-3.3c1.8-1.2,5.8-4.7,3.6-9.1c0.6-2.5-0.6-4-1.5-5.1c-0.9-1-1.6-3.2-1.6-3.2
				s0,1.5-1.3,3.4c-1.3,1.9-3.2,3-2.6,5.7c-1.9,1.4-2.2,3-2.1,5.4c0.1,2.4,2.4,2.6-0.9,5.7"/>
			<path class="st3" d="M165.7,318.3c1.2-1,2.5-2,3.7-3c1.3-0.9,2.6-1.8,3.9-2.6c2.7-1.6,5.8-2.6,8.9-2.8c1.6-0.1,3.1,0.1,4.6,0.4
				c1.5,0.3,3,0.9,4.4,1.6l0.5,0.3l0.3,0.1l0.3,0.1c0.3,0.2,0.7,0.4,1,0.6l1,0.6c0.2,0.1,0.3,0.2,0.5,0.3l0.5,0.3
				c1.3,0.9,2.6,1.8,3.9,2.8c-1.1-1.2-2.3-2.3-3.5-3.3c-0.6-0.5-1.3-1-2-1.4c-0.7-0.4-1.4-0.9-2.1-1.2c-1.4-0.8-3-1.3-4.6-1.7
				c-1.6-0.4-3.3-0.5-4.9-0.5c-1.6,0.1-3.3,0.4-4.8,0.9c-1.6,0.5-3.1,1.2-4.5,2c-1.3,0.7-2.6,1.6-3.8,2.5"/>
			<path class="st3" d="M156.2,351.5c1.5-0.7,5.3-1.9,4.8-3.4c1.4-0.4,2.2-1.8,2.3-3.5c0.1-1.8,0.1-3.3,1.3-4.7
				c-3-0.8-6.7-0.8-9.7,4.9"/>
			<path class="st3" d="M153.8,346.3c-1.4-2.4-2.8-1.8-4.6-2.1c-2.2-0.3-3.1-0.5-3.8-1.6c-1.6-0.6-2.1-1.4-2.4-2.4
				c-0.3-0.9-2.5-1.8-4.7-1.2c1.4-1.8,3.4-3.4,5.5-3c3.5-1.1,6.8,0.3,9.4,7.3"/>
			<path class="st3" d="M157.2,362.6c-1.5,0-3,0.7-3.9,2.1c-1.2,1.7-1.8,3.9-5.1,3.2c0,1.6-0.7,2.3-2.9,3c-2.2,0.7-4.2,1.9-5.3,3.4
				c-1.1-4.2-0.1-10.9,8.2-13.9"/>
			<path class="st3" d="M151.9,361.9c-0.5,0.2-1.1,0.4-1.6,0.6c-1.6,0.7-3.2,1.6-4.6,2.7c-0.7,0.5-1.4,1.1-2,1.8
				c-0.2,0.2-0.3,0.3-0.5,0.5l-0.4,0.5c-0.3,0.3-0.5,0.7-0.8,1.1c-0.5,0.7-0.9,1.5-1.3,2.3c-0.3,0.8-0.6,1.6-0.8,2.5
				c0.4-0.8,0.9-1.5,1.3-2.2c0.5-0.7,1-1.4,1.5-2.1c0.5-0.7,1.1-1.3,1.7-1.9c0.6-0.6,1.2-1.2,1.9-1.7c1.3-1,2.8-1.9,4.3-2.6
				c0.8-0.3,1.6-0.6,2.4-0.8c0.5-0.1,1.1-0.3,1.6-0.4"/>
			<path class="st3" d="M159,362.8c-2-1.3-3-0.7-4.7-0.6c-1.9,0.1-3.3-0.3-3.7-1.4c-2.6,0.2-3.9-0.9-5.4-2.2c-1.5-1.3-4.3-2.2-7-1.1
				c1.9-2.9,7.4-9.5,18.2-0.8"/>
			<path class="st3" d="M157.8,360.1c-0.6-0.5-1.3-1-1.9-1.5c-1.7-1.2-3.4-2.2-5.3-2.9c-1-0.4-1.9-0.6-2.9-0.8c-1-0.2-2-0.3-3.1-0.2
				c-2.1,0.2-4,1-5.6,2.3c0.9-0.4,1.8-0.8,2.8-1c0.9-0.2,1.9-0.4,2.9-0.4c1,0,1.9,0.1,2.9,0.3c0.9,0.2,1.9,0.5,2.8,0.8
				c1.8,0.7,3.5,1.6,5.1,2.8c0.8,0.6,1.6,1.2,2.3,1.8c0.7,0.6,1.4,1.3,2.1,2"/>
			<path class="st3" d="M156.1,353.1c0.1-1.3,0.3-2.6,0.7-3.9c0.4-1.3,1-2.5,1.7-3.6c0.2-0.3,0.4-0.5,0.6-0.8
				c0.2-0.3,0.4-0.5,0.6-0.8c0.4-0.5,0.9-1,1.4-1.4c1-0.9,2-1.7,3.2-2.5c-1.3,0.3-2.6,1-3.7,1.8c-0.6,0.4-1.1,0.9-1.5,1.4
				c-0.2,0.3-0.5,0.5-0.7,0.8c-0.2,0.3-0.4,0.6-0.6,0.9c-0.8,1.2-1.4,2.5-1.8,3.8c-0.2,0.5-0.3,1-0.4,1.5"/>
			<path class="st3" d="M153.9,344.4c-0.4-0.7-0.9-1.4-1.5-2c-1.1-1.3-2.3-2.4-3.8-3.3c-0.7-0.5-1.5-0.8-2.3-1.2
				c-0.8-0.3-1.6-0.5-2.5-0.6c-1.7-0.1-3.5,0.3-4.8,1.3c0.8-0.3,1.6-0.4,2.4-0.5c0.8-0.1,1.6,0,2.3,0.1c0.8,0.1,1.5,0.3,2.3,0.6
				c0.7,0.3,1.4,0.7,2.1,1.1c1.3,0.9,2.5,1.9,3.6,3.1c0.5,0.6,1,1.3,1.4,1.9c0.4,0.7,0.8,1.4,1,2.1"/>
			<path class="st3" d="M186.3,314.2c1.2,1.4,1.6,2.7,2.3,4.5c0.9,2.3,1.7,3.6,3.4,4.6c-2.1,1.6-6.2,1.8-7.7-2.1
				c-3.6-1.7-4.3-3.9-4.9-5.7c-0.4-1.3-1.4-3.3-2.7-4.1"/>
			<path class="st3" d="M179,311.4c0.7,0.5,1.3,1.4,1.9,2c0.5,0.6,1,1.2,1.4,1.8c0.1,0.2,0.2,0.3,0.3,0.5c0.1,0.2,0.2,0.3,0.3,0.5
				c0.2,0.4,0.3,0.7,0.5,1.1c0.4,0.7,0.8,1.5,1.3,2.1c0.5,0.7,1.1,1.3,1.8,1.8c0.7,0.5,1.4,0.9,2.2,1.2c0.4,0.2,0.8,0.3,1.1,0.4
				c0.2,0.1,0.4,0.1,0.6,0.2c0.2,0.1,0.4,0.1,0.6,0.2c-1.4-0.8-2.8-1.6-4-2.7c-0.6-0.5-1.1-1-1.6-1.7c-0.5-0.6-0.8-1.3-1.2-2
				c-0.2-0.4-0.3-0.7-0.5-1.1c-0.1-0.2-0.2-0.4-0.3-0.6c-0.1-0.2-0.2-0.4-0.3-0.6c-0.4-0.7-0.9-1.4-1.5-2c-0.3-0.3-0.9-0.9-1.1-1.1"
				/>
			<path class="st3" d="M175.4,311.6c2.9-0.7,5.9-0.4,10.5,2.4c4.6,2.8,5.1,3.2,7.8,3.1c2.7-0.1,4.4-0.5,6.2,1.1
				c-0.1-2.8-1.3-5.8-4.5-7.7c-1.9-3-6.4-4.4-9.8-3.3c-1.3-0.5-5,1.6-8.1,2.7"/>
			<line class="st3" x1="169" y1="314.4" x2="169.3" y2="314.1"/>
			<path class="st3" d="M165.7,318.2c0,0,0.1-0.1,0.1-0.1"/>
			<path class="st3" d="M155.5,350c-0.1-0.6-0.2-1.2-0.3-1.8c-0.2-2-0.3-4.1-0.2-6.1l0-0.8c0-0.3,0-0.5,0.1-0.8l0.2-1.5l0.3-1.5
				c0.1-0.5,0.2-1,0.3-1.5c0.5-2,1.1-3.9,1.9-5.8l0.3-0.7l0.3-0.7l0.3-0.7l0.4-0.7l0.4-0.7l0.4-0.7c0.3-0.4,0.5-0.9,0.8-1.3
				c1.5-2.4,3.1-4.6,4.9-6.8"/>
			<path class="st3" d="M180.2,392.7c-2.4-9.2-1.2-7.8-9.7-17.5l-6.3-6.5c-1.7-1.5-3.2-3.7-4.6-5.6"/>
			<path class="st3" d="M154.1,346.8c0,0.5,0.1,1,0.1,1.6c0.3,2.1,0.7,4.1,1.3,6.1c0.6,2,1.4,3.9,2.3,5.7"/>
			<path class="st3" d="M172.6,310.3c1.2-1.5,2.4-3.1,3.3-4.8c1-1.9,1.6-3.9,1.9-5.9c0.3-2.1,0.3-4.1,0.1-6.2l0,1.5c0,0.5,0,1,0,1.5
				c0,0.3,0,0.5-0.1,0.8l-0.1,0.8c0,0.3-0.1,0.5-0.1,0.8l-0.1,0.8c-0.4,2-1.1,3.9-2.1,5.7c-1,1.8-2.3,3.4-3.6,4.9
				c-1.4,1.5-2.8,3-4.2,4.5c-1.4,1.5-2.8,3.1-4.1,4.7c-0.6,0.8-1.3,1.7-1.9,2.5c-0.6,0.9-1.2,1.7-1.7,2.6c-0.3,0.4-0.6,0.9-0.8,1.3
				l-0.4,0.7l-0.4,0.7l-0.4,0.7l-0.4,0.7l-0.4,0.7l-0.3,0.7c-0.9,1.9-1.5,3.9-2,5.9c-0.1,0.5-0.2,1-0.3,1.5l-0.3,1.5l-0.2,1.6
				c0,0.3,0,0.5-0.1,0.8l0,0.8c0,0.8-0.1,1.6,0,2.4"/>
			<path class="st3" d="M169.7,313.6l0.6-0.7l1-1.2c0.3-0.4,0.7-0.8,1-1.2c0.1-0.1,0.2-0.2,0.2-0.3"/>
			<line class="st3" x1="169.3" y1="314.1" x2="169.7" y2="313.6"/>
			<path class="st3" d="M156,352.7c1.6,6.5,5.5,9.8,9.3,14.9l6.8,6.9c1.9,2.7,4.6,5.2,7.3,8.1c3.1-1.9,4.6-6.5,9.1-6.4
				c3.8,0.1,5.9,3.5,6.3,7c-2.7-6.6-9.4-4.5-12.7,0.4c-2.3,3.3-1.4,4.5-0.3,8.5"/>
		</g>
	</g>
	<path class="st0" d="M427.1,222.7l0.5,174.2c-0.4,14-3.2,40.1-10.2,59.5h56.3c0,0-11.8-24.6-11.8-60.3l0.2-161.9"/>
</g>
</svg>
