<?xml version="1.0" encoding="utf-8"?>
<!-- Generator: Adobe Illustrator 26.0.3, SVG Export Plug-In . SVG Version: 6.00 Build 0)  -->
<svg version="1.1" id="Layer_1" xmlns="http://www.w3.org/2000/svg" xmlns:xlink="http://www.w3.org/1999/xlink" x="0px" y="0px"
	 viewBox="0 0 1724 1722.9" style="enable-background:new 0 0 1724 1722.9;" xml:space="preserve">
<g id="UM93QO_00000041988494547093780010000002819337868970777484_">
	<g>
		<path d="M1722.3,862.2c0,80.3,0.7,160.5-0.3,240.7c-0.6,48.9-2.7,97.8-6,146.6c-4.9,73.3-20.3,144.5-53,210.8
			c-48.8,98.9-124.3,170.1-226.1,213c-48.8,20.6-99.9,32.5-152.4,38.9c-41,5-82.3,6.7-123.5,7.7c-186.1,4.6-372.2,2.5-558.4,1.4
			c-43.6-0.3-87.2-2.8-130.7-5.9c-65.2-4.6-128.4-18-188.9-43.4c-62.9-26.4-115.8-66.4-160.7-117.4
			c-56.6-64.4-87.8-140.6-104.4-223.6c-7-35.3-11.1-71-12.3-107c-1.5-43.6-3.2-87.2-4.2-130.7c-0.9-40.9-1.4-81.9-1.4-122.8
			C0,863.7-0.1,756.8,0.5,649.9c0.3-43.6,2-87.2,3.8-130.8c2.3-57,8-113.6,23.4-168.8c17.1-61.3,42.7-118.3,83.1-168
			c52.4-64.5,117-112,195.5-140.3c48.6-17.5,98.5-28.5,149.8-32.6c36.1-2.9,72.4-5.2,108.6-6C633.4,1.9,702,1.6,770.6,0.9
			c48.3-0.5,96.5-1.1,144.8-0.9c71.9,0.3,143.8,0.4,215.7,2.1c47.2,1.1,94.5,3.6,141.5,7.8c68.6,6.1,134.7,22.9,196,54.8
			c95.5,49.6,164.4,124.2,205.8,223.8c20.2,48.6,32,99.4,38.3,151.5c4.9,40.7,6.9,81.6,7.6,122.5c1.6,99.9,2.5,199.8,3.6,299.6
			C1723.4,862.2,1722.9,862.2,1722.3,862.2z M1566.3,861.3c0.2,0,0.4,0,0.6,0c0-41.6,0-83.3,0-124.9c0-83.6-0.5-167.1-6.4-250.5
			c-3-42.4-10.4-83.9-24.8-124C1512.3,297,1471,246.6,1412,211.5c-45.7-27.2-96.3-40.8-148.8-45.6c-45-4.1-90.3-6.6-135.5-7.8
			c-65.9-1.7-131.8-1.9-197.8-2.1c-67.9-0.2-135.8,0.6-203.8,0.8c-81.2,0.2-162.5,0.5-243.5,6.6c-40.3,3-79.9,9.9-118.1,23.6
			c-83.9,30-142.4,86.4-174.7,169.6c-17,43.6-24.8,89.2-27.3,135.6c-3,53.8-5.6,107.8-5.7,161.7c-0.5,147.2,0.4,294.3,0.8,441.5
			c0.2,50.9,2,101.8,6.3,152.6c3.8,44.7,12.6,88.3,30.3,129.8c30.1,70.3,80.4,120.6,150.6,150.9c42.3,18.3,87,27.3,132.7,30.8
			c39.1,3,78.4,4.9,117.7,5.9c56.2,1.4,112.5,1.9,168.8,2c77.2,0.1,154.5-0.7,231.7-0.8c80.9-0.2,161.8-0.5,242.6-6.4
			c42.4-3.1,83.9-10.3,123.9-24.9c77.6-28.3,133.2-80.4,166.4-155.9c19-43.1,28.2-88.9,31.3-135.6c3.2-48.8,5.5-97.7,6.2-146.6
			C1567,1018.5,1566.3,939.9,1566.3,861.3z"/>
		<path d="M419.2,861.7C418,622.1,612.7,419.4,861.4,419.2c244.1-0.2,443.2,196.4,443,443c-0.2,245.5-198.5,442.2-442.9,442
			C612.3,1304.1,418,1101,419.2,861.7z M575.2,861.7c0,158,127.9,286.3,285.5,286.6c156.7,0.3,287.7-125.2,287.6-286.6
			c-0.1-163.3-132.8-286.7-286.6-286.5C703.2,575.3,575.2,703.2,575.2,861.7z"/>
		<path d="M1321.1,298.8c54.1-1.6,104,43.7,104,102.8c0,58.1-45.6,103.5-103.9,104.1c-49.5,0.6-103.5-38.2-103.5-103.5
			C1217.7,335,1273.9,296.9,1321.1,298.8z"/>
	</g>
</g>
</svg>
